<svg version="1.1" viewBox="0.0 0.0 600.0 371.0" fill="none" stroke="none" stroke-linecap="square" stroke-miterlimit="10" width="600" height="371" xmlns:xlink="http://www.w3.org/1999/xlink" xmlns="http://www.w3.org/2000/svg"><path fill="#1f2329" d="M0 0L600.0 0L600.0 371.0L0 371.0L0 0Z" fill-rule="nonzero"/><path fill="#4a4453" d="M300.0 18.55C303.4969 18.55 306.9929 18.659866 310.48288 18.879438L305.24142 102.18972C303.49646 102.07993 301.74844 102.025 300.0 102.025Z" fill-rule="nonzero"/><path fill="#00d2ff" d="M310.48288 18.879438C335.00964 20.422531 358.8933 27.361374 380.42877 39.2006L340.2144 112.3503C329.44666 106.43069 317.50482 102.961266 305.24142 102.18972Z" fill-rule="nonzero"/><path fill="#009f7c" d="M380.42877 39.2006C408.19077 54.46288 431.0371 77.30924 446.2994 105.07122L373.1497 145.28561C365.51855 131.40462 354.09537 119.98144 340.2144 112.3503Z" fill-rule="nonzero"/><path fill="#f9f871" d="M446.2994 105.07122C463.2843 135.96663 470.05234 171.44601 465.63354 206.42438L382.81677 195.96219C385.02618 178.473 381.64215 160.7333 373.1497 145.28561Z" fill-rule="nonzero"/><path fill="#ffc452" d="M465.63354 206.42438C460.3115 248.55276 439.1364 287.0701 406.41794 314.13718L353.20895 249.81859C369.5682 236.28505 380.15576 217.02638 382.81677 195.96219Z" fill-rule="nonzero"/><path fill="#6f4fe2" d="M148.93912 114.416145C176.47481 55.899826 235.32872 18.55 300.0 18.55L300.0 102.025C267.66437 102.025 238.23741 120.69991 224.46956 149.95807Z" fill-rule="nonzero"/><path fill="#e339bd" d="M153.7006 265.92877C127.95495 219.09761 126.18483 162.77148 148.93912 114.416145L224.46956 149.95807C213.0924 174.13574 213.97748 202.2988 226.8503 225.71439Z" fill-rule="nonzero"/><path fill="#ff508c" d="M268.71667 349.49286C219.84103 340.1693 177.67122 309.53116 153.7006 265.92877L226.8503 225.71439C238.8356 247.51558 259.9205 262.83466 284.35834 267.49643Z" fill-rule="nonzero"/><path fill="#ff8963" d="M406.41794 314.13718C368.0795 345.8535 317.59235 358.81638 268.71667 349.49286L284.35834 267.49643C308.79617 272.1582 334.03976 265.67676 353.20895 249.81859Z" fill-rule="nonzero"/><path fill="#ffffff" d="M24.440624 43.384354L21.065624 43.384354L21.065624 45.68123L25.034374 45.68123L25.034374 47.08748L19.315624 47.08748L19.315624 38.55623L25.01875 38.55623L25.01875 39.978104L21.065624 39.978104L21.065624 42.009354L24.440624 42.009354L24.440624 43.384354ZM28.83125 45.83748Q29.3 45.83748 29.596874 45.58748Q29.89375 45.321854 29.909374 44.89998L31.4875 44.89998Q31.4875 45.540604 31.14375 46.08748Q30.8 46.61873 30.190624 46.915604Q29.596874 47.21248 28.8625 47.21248Q27.503124 47.21248 26.721874 46.353104Q25.940624 45.478104 25.940624 43.946854L25.940624 43.83748Q25.940624 42.36873 26.721874 41.509354Q27.503124 40.634354 28.8625 40.634354Q30.05 40.634354 30.76875 41.30623Q31.4875 41.978104 31.4875 43.103104L29.909374 43.103104Q29.89375 42.61873 29.596874 42.30623Q29.3 41.99373 28.83125 41.99373Q28.2375 41.99373 27.925 42.43123Q27.628124 42.86873 27.628124 43.821854L27.628124 44.009354Q27.628124 44.978104 27.925 45.415604Q28.221874 45.83748 28.83125 45.83748ZM31.940624 43.853104Q31.940624 42.915604 32.3 42.18123Q32.659374 41.43123 33.346874 41.040604Q34.034374 40.634354 34.925 40.634354Q36.221874 40.634354 37.01875 41.415604Q37.83125 42.196854 37.925 43.540604L37.940624 43.978104Q37.940624 45.446854 37.128124 46.33748Q36.315624 47.21248 34.940624 47.21248Q33.565624 47.21248 32.753124 46.33748Q31.940624 45.446854 31.940624 43.93123L31.940624 43.853104ZM33.628124 43.978104Q33.628124 44.884354 33.971874 45.36873Q34.315624 45.83748 34.940624 45.83748Q35.565624 45.83748 35.909374 45.36873Q36.253124 44.89998 36.253124 43.853104Q36.253124 42.978104 35.909374 42.49373Q35.565624 41.99373 34.925 41.99373Q34.315624 41.99373 33.971874 42.478104Q33.628124 42.96248 33.628124 43.978104ZM42.628124 45.33748Q42.628124 45.02498 42.315624 44.853104Q42.01875 44.665604 41.346874 44.52498Q39.08125 44.05623 39.08125 42.603104Q39.08125 41.759354 39.76875 41.196854Q40.471874 40.634354 41.6125 40.634354Q42.815624 40.634354 43.534374 41.196854Q44.26875 41.759354 44.26875 42.68123L42.565624 42.68123Q42.565624 42.30623 42.33125 42.071854Q42.096874 41.83748 41.596874 41.83748Q41.175 41.83748 40.940624 42.040604Q40.70625 42.228104 40.70625 42.52498Q40.70625 42.80623 40.971874 42.978104Q41.2375 43.14998 41.8625 43.27498Q42.503124 43.39998 42.940624 43.55623Q44.284374 44.05623 44.284374 45.259354Q44.284374 46.134354 43.534374 46.68123Q42.8 47.21248 41.6125 47.21248Q40.815624 47.21248 40.190624 46.93123Q39.58125 46.634354 39.221874 46.14998Q38.878124 45.64998 38.878124 45.071854L40.4875 45.071854Q40.503124 45.52498 40.815624 45.77498Q41.128124 46.009354 41.64375 46.009354Q42.14375 46.009354 42.378124 45.821854Q42.628124 45.634354 42.628124 45.33748ZM47.565624 44.696854L48.7375 40.74373L50.55 40.74373L48.003124 48.071854L47.8625 48.39998Q47.3 49.64998 45.9875 49.64998Q45.628124 49.64998 45.2375 49.540604L45.2375 48.259354L45.503124 48.259354Q45.9875 48.259354 46.221874 48.103104Q46.45625 47.96248 46.596874 47.634354L46.784374 47.103104L44.565624 40.74373L46.39375 40.74373L47.565624 44.696854ZM54.628124 45.33748Q54.628124 45.02498 54.315624 44.853104Q54.01875 44.665604 53.346874 44.52498Q51.08125 44.05623 51.08125 42.603104Q51.08125 41.759354 51.76875 41.196854Q52.471874 40.634354 53.6125 40.634354Q54.815624 40.634354 55.534374 41.196854Q56.26875 41.759354 56.26875 42.68123L54.565624 42.68123Q54.565624 42.30623 54.33125 42.071854Q54.096874 41.83748 53.596874 41.83748Q53.175 41.83748 52.940624 42.040604Q52.70625 42.228104 52.70625 42.52498Q52.70625 42.80623 52.971874 42.978104Q53.2375 43.14998 53.8625 43.27498Q54.503124 43.39998 54.940624 43.55623Q56.284374 44.05623 56.284374 45.259354Q56.284374 46.134354 55.534374 46.68123Q54.8 47.21248 53.6125 47.21248Q52.815624 47.21248 52.190624 46.93123Q51.58125 46.634354 51.221874 46.14998Q50.878124 45.64998 50.878124 45.071854L52.4875 45.071854Q52.503124 45.52498 52.815624 45.77498Q53.128124 46.009354 53.64375 46.009354Q54.14375 46.009354 54.378124 45.821854Q54.628124 45.634354 54.628124 45.33748ZM59.221874 39.18123L59.221874 40.74373L60.315624 40.74373L60.315624 41.99373L59.221874 41.99373L59.221874 45.14998Q59.221874 45.509354 59.3625 45.665604Q59.503124 45.80623 59.878124 45.80623Q60.159374 45.80623 60.378124 45.77498L60.378124 47.05623Q59.878124 47.21248 59.346874 47.21248Q57.565624 47.21248 57.534374 45.39998L57.534374 41.99373L56.6125 41.99373L56.6125 40.74373L57.534374 40.74373L57.534374 39.18123L59.221874 39.18123ZM64.1125 47.21248Q62.721874 47.21248 61.846874 46.353104Q60.971874 45.49373 60.971874 44.071854L60.971874 43.89998Q60.971874 42.946854 61.33125 42.196854Q61.70625 41.446854 62.378124 41.040604Q63.065624 40.634354 63.925 40.634354Q65.2375 40.634354 65.97188 41.46248Q66.72188 42.27498 66.72188 43.77498L66.72188 44.46248L62.690624 44.46248Q62.76875 45.08748 63.175 45.46248Q63.596874 45.83748 64.2375 45.83748Q65.20625 45.83748 65.75313 45.134354L66.59688 46.05623Q66.20625 46.603104 65.55 46.915604Q64.90938 47.21248 64.1125 47.21248ZM63.925 41.99373Q63.425 41.99373 63.1125 42.33748Q62.8 42.68123 62.70625 43.30623L65.06563 43.30623L65.06563 43.18123Q65.05 42.61873 64.75313 42.30623Q64.47188 41.99373 63.925 41.99373ZM68.78438 40.74373L68.84688 41.46248Q69.51875 40.634354 70.65938 40.634354Q71.89375 40.634354 72.34688 41.603104Q73.01875 40.634354 74.25313 40.634354Q75.28438 40.634354 75.78438 41.24373Q76.28438 41.83748 76.28438 43.040604L76.28438 47.08748L74.59688 47.08748L74.59688 43.040604Q74.59688 42.509354 74.37813 42.259354Q74.175 42.009354 73.62813 42.009354Q72.87813 42.009354 72.58125 42.728104L72.58125 47.08748L70.89375 47.08748L70.89375 43.05623Q70.89375 42.49373 70.675 42.259354Q70.45625 42.009354 69.94063 42.009354Q69.22188 42.009354 68.89375 42.603104L68.89375 47.08748L67.20625 47.08748L67.20625 40.74373L68.78438 40.74373ZM87.06563 46.009354Q86.58125 46.571854 85.70625 46.89998Q84.84688 47.21248 83.8 47.21248Q82.69063 47.21248 81.84688 46.728104Q81.01875 46.24373 80.56563 45.321854Q80.1125 44.39998 80.09688 43.14998L80.09688 42.571854Q80.09688 41.290604 80.51875 40.36873Q80.95625 39.43123 81.76875 38.93123Q82.58125 38.43123 83.675 38.43123Q85.19063 38.43123 86.05 39.165604Q86.90938 39.884354 87.06563 41.27498L85.34688 41.27498Q85.2375 40.540604 84.83125 40.196854Q84.425 39.853104 83.72188 39.853104Q82.83125 39.853104 82.3625 40.52498Q81.89375 41.196854 81.89375 42.540604L81.89375 43.071854Q81.89375 44.415604 82.39375 45.103104Q82.90938 45.790604 83.89375 45.790604Q84.87813 45.790604 85.3 45.36873L85.3 43.89998L83.70625 43.89998L83.70625 42.603104L87.06563 42.603104L87.06563 46.009354ZM91.76875 42.33748Q91.425 42.290604 91.15938 42.290604Q90.19063 42.290604 89.89375 42.93123L89.89375 47.08748L88.20625 47.08748L88.20625 40.74373L89.8 40.74373L89.84688 41.509354Q90.3625 40.634354 91.25313 40.634354Q91.53438 40.634354 91.78438 40.71248L91.76875 42.33748ZM91.94063 43.853104Q91.94063 42.915604 92.3 42.18123Q92.65938 41.43123 93.34688 41.040604Q94.03438 40.634354 94.925 40.634354Q96.22188 40.634354 97.01875 41.415604Q97.83125 42.196854 97.925 43.540604L97.94063 43.978104Q97.94063 45.446854 97.12813 46.33748Q96.31563 47.21248 94.94063 47.21248Q93.56563 47.21248 92.75313 46.33748Q91.94063 45.446854 91.94063 43.93123L91.94063 43.853104ZM93.62813 43.978104Q93.62813 44.884354 93.97188 45.36873Q94.31563 45.83748 94.94063 45.83748Q95.56563 45.83748 95.90938 45.36873Q96.25313 44.89998 96.25313 43.853104Q96.25313 42.978104 95.90938 42.49373Q95.56563 41.99373 94.925 41.99373Q94.31563 41.99373 93.97188 42.478104Q93.62813 42.96248 93.62813 43.978104ZM104.72188 44.790604L105.55 40.74373L107.175 40.74373L105.56563 47.08748L104.14375 47.08748L102.94063 43.103104L101.7375 47.08748L100.33125 47.08748L98.72188 40.74373L100.34688 40.74373L101.175 44.77498L102.33125 40.74373L103.56563 40.74373L104.72188 44.790604ZM110.22188 39.18123L110.22188 40.74373L111.31563 40.74373L111.31563 41.99373L110.22188 41.99373L110.22188 45.14998Q110.22188 45.509354 110.3625 45.665604Q110.50313 45.80623 110.87813 45.80623Q111.15938 45.80623 111.37813 45.77498L111.37813 47.05623Q110.87813 47.21248 110.34688 47.21248Q108.56563 47.21248 108.53438 45.39998L108.53438 41.99373L107.6125 41.99373L107.6125 40.74373L108.53438 40.74373L108.53438 39.18123L110.22188 39.18123ZM113.84688 41.43123Q114.53438 40.634354 115.55 40.634354Q117.6125 40.634354 117.64375 43.02498L117.64375 47.08748L115.94063 47.08748L115.94063 43.071854Q115.94063 42.52498 115.70625 42.27498Q115.47188 42.009354 114.925 42.009354Q114.19063 42.009354 113.84688 42.58748L113.84688 47.08748L112.15938 47.08748L112.15938 38.08748L113.84688 38.08748L113.84688 41.43123Z" fill-rule="nonzero"/><path fill="#828487" d="M23.2375 65.08748L21.55 65.08748L21.55 58.55623L19.534374 59.18123L19.534374 57.80623L23.065624 56.540604L23.2375 56.540604L23.2375 65.08748ZM31.690624 58.821854Q31.690624 59.446854 31.378124 59.93123Q31.065624 60.39998 30.51875 60.696854Q31.14375 60.99373 31.503124 61.52498Q31.878124 62.040604 31.878124 62.74373Q31.878124 63.884354 31.096874 64.55623Q30.33125 65.21248 28.9875 65.21248Q27.659374 65.21248 26.878124 64.55623Q26.1125 63.884354 26.1125 62.74373Q26.1125 62.040604 26.471874 61.509354Q26.83125 60.978104 27.45625 60.696854Q26.909374 60.39998 26.596874 59.93123Q26.284374 59.446854 26.284374 58.821854Q26.284374 57.728104 27.003124 57.08748Q27.7375 56.43123 28.9875 56.43123Q30.2375 56.43123 30.95625 57.08748Q31.690624 57.728104 31.690624 58.821854ZM30.175 62.61873Q30.175 62.071854 29.846874 61.74373Q29.534374 61.39998 28.9875 61.39998Q28.440624 61.39998 28.1125 61.728104Q27.8 62.05623 27.8 62.61873Q27.8 63.165604 28.1125 63.509354Q28.440624 63.83748 29.003124 63.83748Q29.55 63.83748 29.8625 63.52498Q30.175 63.196854 30.175 62.61873ZM30.003124 58.89998Q30.003124 58.39998 29.7375 58.103104Q29.471874 57.80623 28.9875 57.80623Q28.51875 57.80623 28.253124 58.103104Q27.9875 58.384354 27.9875 58.89998Q27.9875 59.415604 28.253124 59.728104Q28.51875 60.040604 28.9875 60.040604Q29.471874 60.040604 29.7375 59.728104Q30.003124 59.415604 30.003124 58.89998ZM33.284374 64.25935Q33.284374 63.853104 33.55 63.603104Q33.83125 63.353104 34.2375 63.353104Q34.659374 63.353104 34.925 63.603104Q35.20625 63.853104 35.20625 64.25935Q35.20625 64.64998 34.925 64.89998Q34.659374 65.14998 34.2375 65.14998Q33.83125 65.14998 33.55 64.89998Q33.284374 64.64998 33.284374 64.25935ZM41.878124 61.55623Q41.878124 63.321854 41.14375 64.27498Q40.409374 65.21248 39.003124 65.21248Q37.596874 65.21248 36.8625 64.2906Q36.128124 63.36873 36.1125 61.64998L36.1125 60.071854Q36.1125 58.290604 36.846874 57.36873Q37.596874 56.43123 38.9875 56.43123Q40.378124 56.43123 41.1125 57.353104Q41.8625 58.27498 41.878124 59.99373L41.878124 61.55623ZM40.175 59.83748Q40.175 58.77498 39.878124 58.290604Q39.596874 57.80623 38.9875 57.80623Q38.39375 57.80623 38.096874 58.27498Q37.815624 58.728104 37.8 59.71248L37.8 61.77498Q37.8 62.821854 38.08125 63.33748Q38.3625 63.83748 39.003124 63.83748Q39.6125 63.83748 39.89375 63.353104Q40.175 62.86873 40.175 61.86873L40.175 59.83748ZM43.1125 58.196854Q43.1125 57.415604 43.6125 56.93123Q44.128124 56.43123 44.95625 56.43123Q45.784374 56.43123 46.3 56.915604Q46.815624 57.39998 46.815624 58.228104L46.815624 58.64998Q46.815624 59.43123 46.3 59.915604Q45.784374 60.39998 44.971874 60.39998Q44.128124 60.39998 43.6125 59.915604Q43.1125 59.43123 43.1125 58.61873L43.1125 58.196854ZM44.2375 58.64998Q44.2375 58.99373 44.440624 59.21248Q44.64375 59.43123 44.971874 59.43123Q45.3 59.43123 45.4875 59.21248Q45.675 58.99373 45.675 58.634354L45.675 58.196854Q45.675 57.83748 45.4875 57.634354Q45.3 57.415604 44.95625 57.415604Q44.628124 57.415604 44.425 57.634354Q44.2375 57.83748 44.2375 58.21248L44.2375 58.64998ZM47.190624 62.99373Q47.190624 62.196854 47.70625 61.728104Q48.221874 61.24373 49.034374 61.24373Q49.8625 61.24373 50.378124 61.728104Q50.89375 62.196854 50.89375 63.02498L50.89375 63.446854Q50.89375 64.24373 50.39375 64.7281Q49.89375 65.21248 49.05 65.21248Q48.20625 65.21248 47.690624 64.7281Q47.190624 64.2281 47.190624 63.43123L47.190624 62.99373ZM48.315624 63.446854Q48.315624 63.77498 48.51875 64.00935Q48.7375 64.2281 49.05 64.2281Q49.76875 64.2281 49.76875 63.446854L49.76875 62.99373Q49.76875 62.64998 49.565624 62.43123Q49.3625 62.21248 49.034374 62.21248Q48.70625 62.21248 48.503124 62.43123Q48.315624 62.64998 48.315624 63.009354L48.315624 63.446854ZM45.3 64.44685L44.471874 64.00935L48.64375 57.33748L49.471874 57.77498L45.3 64.44685Z" fill-rule="nonzero"/><path stroke="#abadaf" stroke-width="1.0" stroke-linecap="butt" d="M18.55 51.58748L127.05 51.58748L215.01653 51.58748" fill-rule="nonzero"/><path fill="#828487" d="M217.01653 51.58748C217.01653 50.48291 216.1211 49.58748 215.01653 49.58748C213.91196 49.58748 213.01653 50.48291 213.01653 51.58748C213.01653 52.69205 213.91196 53.58748 215.01653 53.58748C216.1211 53.58748 217.01653 52.69205 217.01653 51.58748" fill-rule="nonzero"/><path fill="#ffffff" d="M21.065624 184.57558L24.8 184.57558L24.8 185.98183L19.315624 185.98183L19.315624 177.45058L21.065624 177.45058L21.065624 184.57558ZM27.9875 185.98183L26.284374 185.98183L26.284374 179.63808L27.9875 179.63808L27.9875 185.98183ZM26.190624 177.99745Q26.190624 177.62245 26.440624 177.37245Q26.70625 177.12245 27.14375 177.12245Q27.565624 177.12245 27.815624 177.37245Q28.08125 177.62245 28.08125 177.99745Q28.08125 178.38808 27.815624 178.63808Q27.565624 178.87245 27.128124 178.87245Q26.70625 178.87245 26.440624 178.63808Q26.190624 178.38808 26.190624 177.99745ZM28.940624 182.74745Q28.940624 181.26308 29.596874 180.4037Q30.26875 179.5287 31.425 179.5287Q32.440624 179.5287 33.05 180.30995L33.159374 179.63808L34.64375 179.63808L34.64375 188.41933L32.95625 188.41933L32.95625 185.43495Q32.3625 186.10683 31.409374 186.10683Q30.284374 186.10683 29.6125 185.23183Q28.940624 184.3412 28.940624 182.74745ZM30.628124 182.87245Q30.628124 183.7787 30.940624 184.26308Q31.26875 184.73183 31.846874 184.73183Q32.628124 184.73183 32.95625 184.10683L32.95625 181.49745Q32.628124 180.88808 31.8625 180.88808Q31.26875 180.88808 30.940624 181.37245Q30.628124 181.8412 30.628124 182.87245ZM40.003124 185.3412Q39.378124 186.10683 38.26875 186.10683Q37.2375 186.10683 36.70625 185.51308Q36.175 184.91933 36.159374 183.79433L36.159374 179.63808L37.846874 179.63808L37.846874 183.73183Q37.846874 184.73183 38.753124 184.73183Q39.6125 184.73183 39.940624 184.12245L39.940624 179.63808L41.64375 179.63808L41.64375 185.98183L40.05 185.98183L40.003124 185.3412ZM44.9875 185.98183L43.284374 185.98183L43.284374 179.63808L44.9875 179.63808L44.9875 185.98183ZM43.190624 177.99745Q43.190624 177.62245 43.440624 177.37245Q43.70625 177.12245 44.14375 177.12245Q44.565624 177.12245 44.815624 177.37245Q45.08125 177.62245 45.08125 177.99745Q45.08125 178.38808 44.815624 178.63808Q44.565624 178.87245 44.128124 178.87245Q43.70625 178.87245 43.440624 178.63808Q43.190624 178.38808 43.190624 177.99745ZM45.940624 182.76308Q45.940624 181.2787 46.596874 180.4037Q47.26875 179.5287 48.425 179.5287Q49.346874 179.5287 49.95625 180.2162L49.95625 176.98183L51.64375 176.98183L51.64375 185.98183L50.128124 185.98183L50.034374 185.30995Q49.409374 186.10683 48.409374 186.10683Q47.284374 186.10683 46.6125 185.23183Q45.940624 184.3412 45.940624 182.76308ZM47.628124 182.88808Q47.628124 183.7787 47.940624 184.26308Q48.253124 184.73183 48.846874 184.73183Q49.628124 184.73183 49.95625 184.05995L49.95625 181.55995Q49.628124 180.9037 48.8625 180.9037Q47.628124 180.9037 47.628124 182.88808ZM54.9875 185.98183L53.284374 185.98183L53.284374 179.63808L54.9875 179.63808L54.9875 185.98183ZM53.190624 177.99745Q53.190624 177.62245 53.440624 177.37245Q53.70625 177.12245 54.14375 177.12245Q54.565624 177.12245 54.815624 177.37245Q55.08125 177.62245 55.08125 177.99745Q55.08125 178.38808 54.815624 178.63808Q54.565624 178.87245 54.128124 178.87245Q53.70625 178.87245 53.440624 178.63808Q53.190624 178.38808 53.190624 177.99745ZM58.221874 178.07558L58.221874 179.63808L59.315624 179.63808L59.315624 180.88808L58.221874 180.88808L58.221874 184.04433Q58.221874 184.4037 58.3625 184.55995Q58.503124 184.70058 58.878124 184.70058Q59.159374 184.70058 59.378124 184.66933L59.378124 185.95058Q58.878124 186.10683 58.346874 186.10683Q56.565624 186.10683 56.534374 184.29433L56.534374 180.88808L55.6125 180.88808L55.6125 179.63808L56.534374 179.63808L56.534374 178.07558L58.221874 178.07558ZM62.565624 183.5912L63.7375 179.63808L65.55 179.63808L63.003124 186.9662L62.8625 187.29433Q62.3 188.54433 60.9875 188.54433Q60.628124 188.54433 60.2375 188.43495L60.2375 187.1537L60.503124 187.1537Q60.9875 187.1537 61.221874 186.99745Q61.45625 186.85683 61.596874 186.5287L61.784374 185.99745L59.565624 179.63808L61.39375 179.63808L62.565624 183.5912Z" fill-rule="nonzero"/><path fill="#828487" d="M23.2375 203.98183L21.55 203.98183L21.55 197.45058L19.534374 198.07558L19.534374 196.70058L23.065624 195.43495L23.2375 195.43495L23.2375 203.98183ZM26.378124 199.7787L26.878124 195.45058L31.659374 195.45058L31.659374 196.85683L28.26875 196.85683L28.05 198.70058Q28.659374 198.37245 29.33125 198.37245Q30.55 198.37245 31.2375 199.13808Q31.940624 199.88808 31.940624 201.24745Q31.940624 202.07558 31.58125 202.73183Q31.2375 203.37245 30.58125 203.74745Q29.940624 204.10683 29.05 204.10683Q28.284374 204.10683 27.6125 203.79433Q26.95625 203.4662 26.565624 202.9037Q26.190624 202.3412 26.159374 201.60683L27.846874 201.60683Q27.89375 202.13808 28.20625 202.43495Q28.534374 202.73183 29.05 202.73183Q29.628124 202.73183 29.925 202.32558Q30.2375 201.9037 30.2375 201.1537Q30.2375 200.41933 29.878124 200.04433Q29.534374 199.6537 28.878124 199.6537Q28.26875 199.6537 27.89375 199.9662L27.7375 200.12245L26.378124 199.7787ZM33.284374 203.1537Q33.284374 202.74745 33.55 202.49745Q33.83125 202.24745 34.2375 202.24745Q34.659374 202.24745 34.925 202.49745Q35.20625 202.74745 35.20625 203.1537Q35.20625 203.54433 34.925 203.79433Q34.659374 204.04433 34.2375 204.04433Q33.83125 204.04433 33.55 203.79433Q33.284374 203.54433 33.284374 203.1537ZM41.878124 200.45058Q41.878124 202.2162 41.14375 203.16933Q40.409374 204.10683 39.003124 204.10683Q37.596874 204.10683 36.8625 203.18495Q36.128124 202.26308 36.1125 200.54433L36.1125 198.9662Q36.1125 197.18495 36.846874 196.26308Q37.596874 195.32558 38.9875 195.32558Q40.378124 195.32558 41.1125 196.24745Q41.8625 197.16933 41.878124 198.88808L41.878124 200.45058ZM40.175 198.73183Q40.175 197.66933 39.878124 197.18495Q39.596874 196.70058 38.9875 196.70058Q38.39375 196.70058 38.096874 197.16933Q37.815624 197.62245 37.8 198.60683L37.8 200.66933Q37.8 201.7162 38.08125 202.23183Q38.3625 202.73183 39.003124 202.73183Q39.6125 202.73183 39.89375 202.24745Q40.175 201.76308 40.175 200.76308L40.175 198.73183ZM43.1125 197.0912Q43.1125 196.30995 43.6125 195.82558Q44.128124 195.32558 44.95625 195.32558Q45.784374 195.32558 46.3 195.80995Q46.815624 196.29433 46.815624 197.12245L46.815624 197.54433Q46.815624 198.32558 46.3 198.80995Q45.784374 199.29433 44.971874 199.29433Q44.128124 199.29433 43.6125 198.80995Q43.1125 198.32558 43.1125 197.51308L43.1125 197.0912ZM44.2375 197.54433Q44.2375 197.88808 44.440624 198.10683Q44.64375 198.32558 44.971874 198.32558Q45.3 198.32558 45.4875 198.10683Q45.675 197.88808 45.675 197.5287L45.675 197.0912Q45.675 196.73183 45.4875 196.5287Q45.3 196.30995 44.95625 196.30995Q44.628124 196.30995 44.425 196.5287Q44.2375 196.73183 44.2375 197.10683L44.2375 197.54433ZM47.190624 201.88808Q47.190624 201.0912 47.70625 200.62245Q48.221874 200.13808 49.034374 200.13808Q49.8625 200.13808 50.378124 200.62245Q50.89375 201.0912 50.89375 201.91933L50.89375 202.3412Q50.89375 203.13808 50.39375 203.62245Q49.89375 204.10683 49.05 204.10683Q48.20625 204.10683 47.690624 203.62245Q47.190624 203.12245 47.190624 202.32558L47.190624 201.88808ZM48.315624 202.3412Q48.315624 202.66933 48.51875 202.9037Q48.7375 203.12245 49.05 203.12245Q49.76875 203.12245 49.76875 202.3412L49.76875 201.88808Q49.76875 201.54433 49.565624 201.32558Q49.3625 201.10683 49.034374 201.10683Q48.70625 201.10683 48.503124 201.32558Q48.315624 201.54433 48.315624 201.9037L48.315624 202.3412ZM45.3 203.3412L44.471874 202.9037L48.64375 196.23183L49.471874 196.66933L45.3 203.3412Z" fill-rule="nonzero"/><path stroke="#abadaf" stroke-width="1.0" stroke-linecap="butt" d="M18.55 190.48183L127.05 190.48183L141.47575 190.48183" fill-rule="nonzero"/><path fill="#828487" d="M143.47575 190.48183C143.47575 189.37726 142.58034 188.48183 141.47575 188.48183C140.37119 188.48183 139.47575 189.37726 139.47575 190.48183C139.47575 191.5864 140.37119 192.48183 141.47575 192.48183C142.58034 192.48183 143.47575 191.5864 143.47575 190.48183" fill-rule="nonzero"/><path fill="#ffffff" d="M24.440624 305.60898L21.065624 305.60898L21.065624 307.90585L25.034374 307.90585L25.034374 309.3121L19.315624 309.3121L19.315624 300.78085L25.01875 300.78085L25.01875 302.20273L21.065624 302.20273L21.065624 304.23398L24.440624 304.23398L24.440624 305.60898ZM29.878124 309.3121Q29.753124 309.07773 29.70625 308.7496Q29.096874 309.4371 28.1125 309.4371Q27.175 309.4371 26.565624 308.89023Q25.95625 308.34335 25.95625 307.53085Q25.95625 306.51523 26.690624 305.98398Q27.440624 305.4371 28.8625 305.4371L29.628124 305.4371L29.628124 305.07773Q29.628124 304.64023 29.409374 304.3746Q29.190624 304.10898 28.690624 304.10898Q28.26875 304.10898 28.01875 304.3121Q27.784374 304.51523 27.784374 304.8746L26.096874 304.8746Q26.096874 304.32773 26.425 303.85898Q26.76875 303.39023 27.39375 303.1246Q28.01875 302.85898 28.784374 302.85898Q29.95625 302.85898 30.64375 303.45273Q31.33125 304.03085 31.33125 305.09335L31.33125 307.84335Q31.346874 308.7496 31.58125 309.21835L31.58125 309.3121L29.878124 309.3121ZM28.471874 308.14023Q28.846874 308.14023 29.159374 307.96835Q29.4875 307.79648 29.628124 307.51523L29.628124 306.42148L29.003124 306.42148Q27.7375 306.42148 27.64375 307.3121L27.64375 307.40585Q27.64375 307.71835 27.8625 307.9371Q28.08125 308.14023 28.471874 308.14023ZM35.76875 304.5621Q35.425 304.51523 35.159374 304.51523Q34.190624 304.51523 33.89375 305.15585L33.89375 309.3121L32.20625 309.3121L32.20625 302.96835L33.8 302.96835L33.846874 303.73398Q34.3625 302.85898 35.253124 302.85898Q35.534374 302.85898 35.784374 302.9371L35.76875 304.5621ZM37.753124 302.96835L37.815624 303.70273Q38.4875 302.85898 39.628124 302.85898Q40.64375 302.85898 41.128124 303.45273Q41.628124 304.03085 41.64375 305.21835L41.64375 309.3121L39.940624 309.3121L39.940624 305.2496Q39.940624 304.71835 39.70625 304.48398Q39.471874 304.23398 38.925 304.23398Q38.221874 304.23398 37.8625 304.84335L37.8625 309.3121L36.159374 309.3121L36.159374 302.96835L37.753124 302.96835ZM44.9875 309.3121L43.284374 309.3121L43.284374 302.96835L44.9875 302.96835L44.9875 309.3121ZM43.190624 301.32773Q43.190624 300.95273 43.440624 300.70273Q43.70625 300.45273 44.14375 300.45273Q44.565624 300.45273 44.815624 300.70273Q45.08125 300.95273 45.08125 301.32773Q45.08125 301.71835 44.815624 301.96835Q44.565624 302.20273 44.128124 302.20273Q43.70625 302.20273 43.440624 301.96835Q43.190624 301.71835 43.190624 301.32773ZM47.753124 302.96835L47.815624 303.70273Q48.4875 302.85898 49.628124 302.85898Q50.64375 302.85898 51.128124 303.45273Q51.628124 304.03085 51.64375 305.21835L51.64375 309.3121L49.940624 309.3121L49.940624 305.2496Q49.940624 304.71835 49.70625 304.48398Q49.471874 304.23398 48.925 304.23398Q48.221874 304.23398 47.8625 304.84335L47.8625 309.3121L46.159374 309.3121L46.159374 302.96835L47.753124 302.96835ZM52.95625 306.09335Q52.95625 304.64023 53.64375 303.7496Q54.346874 302.85898 55.51875 302.85898Q56.565624 302.85898 57.14375 303.5621L57.221874 302.96835L58.753124 302.96835L58.753124 309.09335Q58.753124 309.9371 58.3625 310.54648Q57.9875 311.17148 57.3 311.48398Q56.628124 311.8121 55.70625 311.8121Q55.003124 311.8121 54.33125 311.53085Q53.675 311.2496 53.346874 310.8121L54.096874 309.78085Q54.721874 310.48398 55.628124 310.48398Q56.3 310.48398 56.675 310.1246Q57.05 309.76523 57.05 309.10898L57.05 308.76523Q56.471874 309.4371 55.503124 309.4371Q54.3625 309.4371 53.659374 308.54648Q52.95625 307.64023 52.95625 306.17148L52.95625 306.09335ZM54.64375 306.21835Q54.64375 307.07773 54.9875 307.57773Q55.346874 308.0621 55.940624 308.0621Q56.721874 308.0621 57.05 307.48398L57.05 304.8121Q56.70625 304.23398 55.95625 304.23398Q55.346874 304.23398 54.9875 304.73398Q54.64375 305.23398 54.64375 306.21835ZM65.06563 306.3121L65.06563 309.3121L63.315624 309.3121L63.315624 300.78085L66.64375 300.78085Q67.59688 300.78085 68.33125 301.14023Q69.06563 301.48398 69.45625 302.14023Q69.84688 302.78085 69.84688 303.60898Q69.84688 304.85898 68.9875 305.59335Q68.12813 306.3121 66.6125 306.3121L65.06563 306.3121ZM65.06563 304.8746L66.64375 304.8746Q67.33125 304.8746 67.69063 304.54648Q68.06563 304.21835 68.06563 303.60898Q68.06563 302.98398 67.69063 302.60898Q67.33125 302.21835 66.675 302.20273L65.06563 302.20273L65.06563 304.8746ZM70.94063 306.07773Q70.94063 305.14023 71.3 304.40585Q71.65938 303.65585 72.34688 303.26523Q73.03438 302.85898 73.925 302.85898Q75.22188 302.85898 76.01875 303.64023Q76.83125 304.42148 76.925 305.76523L76.94063 306.20273Q76.94063 307.67148 76.12813 308.5621Q75.31563 309.4371 73.94063 309.4371Q72.56563 309.4371 71.75313 308.5621Q70.94063 307.67148 70.94063 306.15585L70.94063 306.07773ZM72.62813 306.20273Q72.62813 307.10898 72.97188 307.59335Q73.31563 308.0621 73.94063 308.0621Q74.56563 308.0621 74.90938 307.59335Q75.25313 307.1246 75.25313 306.07773Q75.25313 305.20273 74.90938 304.71835Q74.56563 304.21835 73.925 304.21835Q73.31563 304.21835 72.97188 304.70273Q72.62813 305.1871 72.62813 306.20273ZM77.94063 306.07773Q77.94063 305.14023 78.3 304.40585Q78.65938 303.65585 79.34688 303.26523Q80.03438 302.85898 80.925 302.85898Q82.22188 302.85898 83.01875 303.64023Q83.83125 304.42148 83.925 305.76523L83.94063 306.20273Q83.94063 307.67148 83.12813 308.5621Q82.31563 309.4371 80.94063 309.4371Q79.56563 309.4371 78.75313 308.5621Q77.94063 307.67148 77.94063 306.15585L77.94063 306.07773ZM79.62813 306.20273Q79.62813 307.10898 79.97188 307.59335Q80.31563 308.0621 80.94063 308.0621Q81.56563 308.0621 81.90938 307.59335Q82.25313 307.1246 82.25313 306.07773Q82.25313 305.20273 81.90938 304.71835Q81.56563 304.21835 80.925 304.21835Q80.31563 304.21835 79.97188 304.70273Q79.62813 305.1871 79.62813 306.20273ZM86.9875 309.3121L85.28438 309.3121L85.28438 300.3121L86.9875 300.3121L86.9875 309.3121Z" fill-rule="nonzero"/><path fill="#828487" d="M23.2375 327.3121L21.55 327.3121L21.55 320.78085L19.534374 321.40585L19.534374 320.03085L23.065624 318.76523L23.2375 318.76523L23.2375 327.3121ZM31.14375 324.09335L32.1125 324.09335L32.1125 325.46835L31.14375 325.46835L31.14375 327.3121L29.440624 327.3121L29.440624 325.46835L25.95625 325.46835L25.878124 324.40585L29.425 318.78085L31.14375 318.78085L31.14375 324.09335ZM27.565624 324.09335L29.440624 324.09335L29.440624 321.09335L29.33125 321.28085L27.565624 324.09335ZM33.284374 326.48398Q33.284374 326.07773 33.55 325.82773Q33.83125 325.57773 34.2375 325.57773Q34.659374 325.57773 34.925 325.82773Q35.20625 326.07773 35.20625 326.48398Q35.20625 326.8746 34.925 327.1246Q34.659374 327.3746 34.2375 327.3746Q33.83125 327.3746 33.55 327.1246Q33.284374 326.8746 33.284374 326.48398ZM41.878124 323.78085Q41.878124 325.54648 41.14375 326.4996Q40.409374 327.4371 39.003124 327.4371Q37.596874 327.4371 36.8625 326.51523Q36.128124 325.59335 36.1125 323.8746L36.1125 322.29648Q36.1125 320.51523 36.846874 319.59335Q37.596874 318.65585 38.9875 318.65585Q40.378124 318.65585 41.1125 319.57773Q41.8625 320.4996 41.878124 322.21835L41.878124 323.78085ZM40.175 322.0621Q40.175 320.9996 39.878124 320.51523Q39.596874 320.03085 38.9875 320.03085Q38.39375 320.03085 38.096874 320.4996Q37.815624 320.95273 37.8 321.9371L37.8 323.9996Q37.8 325.04648 38.08125 325.5621Q38.3625 326.0621 39.003124 326.0621Q39.6125 326.0621 39.89375 325.57773Q40.175 325.09335 40.175 324.09335L40.175 322.0621ZM43.1125 320.42148Q43.1125 319.64023 43.6125 319.15585Q44.128124 318.65585 44.95625 318.65585Q45.784374 318.65585 46.3 319.14023Q46.815624 319.6246 46.815624 320.45273L46.815624 320.8746Q46.815624 321.65585 46.3 322.14023Q45.784374 322.6246 44.971874 322.6246Q44.128124 322.6246 43.6125 322.14023Q43.1125 321.65585 43.1125 320.84335L43.1125 320.42148ZM44.2375 320.8746Q44.2375 321.21835 44.440624 321.4371Q44.64375 321.65585 44.971874 321.65585Q45.3 321.65585 45.4875 321.4371Q45.675 321.21835 45.675 320.85898L45.675 320.42148Q45.675 320.0621 45.4875 319.85898Q45.3 319.64023 44.95625 319.64023Q44.628124 319.64023 44.425 319.85898Q44.2375 320.0621 44.2375 320.4371L44.2375 320.8746ZM47.190624 325.21835Q47.190624 324.42148 47.70625 323.95273Q48.221874 323.46835 49.034374 323.46835Q49.8625 323.46835 50.378124 323.95273Q50.89375 324.42148 50.89375 325.2496L50.89375 325.67148Q50.89375 326.46835 50.39375 326.95273Q49.89375 327.4371 49.05 327.4371Q48.20625 327.4371 47.690624 326.95273Q47.190624 326.45273 47.190624 325.65585L47.190624 325.21835ZM48.315624 325.67148Q48.315624 325.9996 48.51875 326.23398Q48.7375 326.45273 49.05 326.45273Q49.76875 326.45273 49.76875 325.67148L49.76875 325.21835Q49.76875 324.8746 49.565624 324.65585Q49.3625 324.4371 49.034374 324.4371Q48.70625 324.4371 48.503124 324.65585Q48.315624 324.8746 48.315624 325.23398L48.315624 325.67148ZM45.3 326.67148L44.471874 326.23398L48.64375 319.5621L49.471874 319.9996L45.3 326.67148Z" fill-rule="nonzero"/><path stroke="#abadaf" stroke-width="1.0" stroke-linecap="butt" d="M18.55 313.8121L127.05 313.8121L206.77579 313.8121" fill-rule="nonzero"/><path fill="#828487" d="M208.77579 313.8121C208.77579 312.70755 207.88036 311.8121 206.77579 311.8121C205.67122 311.8121 204.77579 312.70755 204.77579 313.8121C204.77579 314.9167 205.67122 315.8121 206.77579 315.8121C207.88036 315.8121 208.77579 314.9167 208.77579 313.8121" fill-rule="nonzero"/><path fill="#ffffff" d="M547.02814 28.784374L543.95 28.784374L543.35626 30.55L541.4969 30.55L544.66876 22.01875L546.29376 22.01875L549.4969 30.55L547.6219 30.55L547.02814 28.784374ZM544.41876 27.3625L546.5594 27.3625L545.48126 24.175L544.41876 27.3625ZM551.8875 30.55L550.1844 30.55L550.1844 24.20625L551.8875 24.20625L551.8875 30.55ZM550.09064 22.565624Q550.09064 22.190624 550.34064 21.940624Q550.60626 21.690624 551.04376 21.690624Q551.46564 21.690624 551.71564 21.940624Q551.98126 22.190624 551.98126 22.565624Q551.98126 22.95625 551.71564 23.20625Q551.46564 23.440624 551.02814 23.440624Q550.60626 23.440624 550.34064 23.20625Q550.09064 22.95625 550.09064 22.565624ZM556.66876 25.8Q556.325 25.753124 556.0594 25.753124Q555.09064 25.753124 554.79376 26.39375L554.79376 30.55L553.10626 30.55L553.10626 24.20625L554.7 24.20625L554.7469 24.971874Q555.2625 24.096874 556.15314 24.096874Q556.4344 24.096874 556.6844 24.175L556.66876 25.8ZM556.84064 27.33125Q556.84064 25.846874 557.4969 24.971874Q558.16876 24.096874 559.325 24.096874Q560.2469 24.096874 560.85626 24.784374L560.85626 21.55L562.54376 21.55L562.54376 30.55L561.02814 30.55L560.9344 29.878124Q560.3094 30.675 559.3094 30.675Q558.1844 30.675 557.5125 29.8Q556.84064 28.909374 556.84064 27.33125ZM558.52814 27.45625Q558.52814 28.346874 558.84064 28.83125Q559.15314 29.3 559.7469 29.3Q560.52814 29.3 560.85626 28.628124L560.85626 26.128124Q560.52814 25.471874 559.7625 25.471874Q558.52814 25.471874 558.52814 27.45625ZM567.66876 25.8Q567.325 25.753124 567.0594 25.753124Q566.09064 25.753124 565.79376 26.39375L565.79376 30.55L564.10626 30.55L564.10626 24.20625L565.7 24.20625L565.7469 24.971874Q566.2625 24.096874 567.15314 24.096874Q567.4344 24.096874 567.6844 24.175L567.66876 25.8ZM567.84064 27.315624Q567.84064 26.378124 568.2 25.64375Q568.5594 24.89375 569.2469 24.503124Q569.9344 24.096874 570.825 24.096874Q572.1219 24.096874 572.91876 24.878124Q573.73126 25.659374 573.825 27.003124L573.84064 27.440624Q573.84064 28.909374 573.02814 29.8Q572.21564 30.675 570.84064 30.675Q569.46564 30.675 568.65314 29.8Q567.84064 28.909374 567.84064 27.39375L567.84064 27.315624ZM569.52814 27.440624Q569.52814 28.346874 569.8719 28.83125Q570.21564 29.3 570.84064 29.3Q571.46564 29.3 571.8094 28.83125Q572.15314 28.3625 572.15314 27.315624Q572.15314 26.440624 571.8094 25.95625Q571.46564 25.45625 570.825 25.45625Q570.21564 25.45625 569.8719 25.940624Q569.52814 26.425 569.52814 27.440624ZM580.8094 27.440624Q580.8094 28.909374 580.1375 29.8Q579.48126 30.675 578.34064 30.675Q577.3875 30.675 576.79376 30.003124L576.79376 32.9875L575.10626 32.9875L575.10626 24.20625L576.66876 24.20625L576.73126 24.83125Q577.34064 24.096874 578.34064 24.096874Q579.5125 24.096874 580.15314 24.971874Q580.8094 25.83125 580.8094 27.346874L580.8094 27.440624ZM579.1219 27.315624Q579.1219 26.425 578.79376 25.95625Q578.48126 25.471874 577.8875 25.471874Q577.09064 25.471874 576.79376 26.08125L576.79376 28.675Q577.10626 29.3 577.90314 29.3Q579.1219 29.3 579.1219 27.315624Z" fill-rule="nonzero"/><path fill="#828487" d="M560.1375 48.55L558.45 48.55L558.45 42.01875L556.4344 42.64375L556.4344 41.26875L559.96564 40.003124L560.1375 40.003124L560.1375 48.55ZM563.1844 47.721874Q563.1844 47.315624 563.45 47.065624Q563.73126 46.815624 564.1375 46.815624Q564.5594 46.815624 564.825 47.065624Q565.10626 47.315624 565.10626 47.721874Q565.10626 48.1125 564.825 48.3625Q564.5594 48.6125 564.1375 48.6125Q563.73126 48.6125 563.45 48.3625Q563.1844 48.1125 563.1844 47.721874ZM571.77814 45.01875Q571.77814 46.784374 571.04376 47.7375Q570.3094 48.675 568.90314 48.675Q567.4969 48.675 566.7625 47.753124Q566.02814 46.83125 566.0125 45.1125L566.0125 43.534374Q566.0125 41.753124 566.7469 40.83125Q567.4969 39.89375 568.8875 39.89375Q570.27814 39.89375 571.0125 40.815624Q571.7625 41.7375 571.77814 43.45625L571.77814 45.01875ZM570.075 43.3Q570.075 42.2375 569.77814 41.753124Q569.4969 41.26875 568.8875 41.26875Q568.29376 41.26875 567.9969 41.7375Q567.71564 42.190624 567.7 43.175L567.7 45.2375Q567.7 46.284374 567.98126 46.8Q568.2625 47.3 568.90314 47.3Q569.5125 47.3 569.79376 46.815624Q570.075 46.33125 570.075 45.33125L570.075 43.3ZM573.0125 41.659374Q573.0125 40.878124 573.5125 40.39375Q574.02814 39.89375 574.85626 39.89375Q575.6844 39.89375 576.2 40.378124Q576.71564 40.8625 576.71564 41.690624L576.71564 42.1125Q576.71564 42.89375 576.2 43.378124Q575.6844 43.8625 574.8719 43.8625Q574.02814 43.8625 573.5125 43.378124Q573.0125 42.89375 573.0125 42.08125L573.0125 41.659374ZM574.1375 42.1125Q574.1375 42.45625 574.34064 42.675Q574.54376 42.89375 574.8719 42.89375Q575.2 42.89375 575.3875 42.675Q575.575 42.45625 575.575 42.096874L575.575 41.659374Q575.575 41.3 575.3875 41.096874Q575.2 40.878124 574.85626 40.878124Q574.52814 40.878124 574.325 41.096874Q574.1375 41.3 574.1375 41.675L574.1375 42.1125ZM577.09064 46.45625Q577.09064 45.659374 577.60626 45.190624Q578.1219 44.70625 578.9344 44.70625Q579.7625 44.70625 580.27814 45.190624Q580.79376 45.659374 580.79376 46.4875L580.79376 46.909374Q580.79376 47.70625 580.29376 48.190624Q579.79376 48.675 578.95 48.675Q578.10626 48.675 577.59064 48.190624Q577.09064 47.690624 577.09064 46.89375L577.09064 46.45625ZM578.21564 46.909374Q578.21564 47.2375 578.41876 47.471874Q578.6375 47.690624 578.95 47.690624Q579.66876 47.690624 579.66876 46.909374L579.66876 46.45625Q579.66876 46.1125 579.46564 45.89375Q579.2625 45.675 578.9344 45.675Q578.60626 45.675 578.40314 45.89375Q578.21564 46.1125 578.21564 46.471874L578.21564 46.909374ZM575.2 47.909374L574.3719 47.471874L578.54376 40.8L579.3719 41.2375L575.2 47.909374Z" fill-rule="nonzero"/><path stroke="#abadaf" stroke-width="1.0" stroke-linecap="butt" d="M581.45 35.05L472.95 35.05L304.9818 26.975761" fill-rule="nonzero"/><path fill="#828487" d="M306.9818 26.975761C306.9818 25.871191 306.0864 24.975761 304.9818 24.975761C303.87726 24.975761 302.9818 25.871191 302.9818 26.975761C302.9818 28.08033 303.87726 28.975761 304.9818 28.975761C306.0864 28.975761 306.9818 28.08033 306.9818 26.975761" fill-rule="nonzero"/><path fill="#ffffff" d="M521.6375 61.315624Q521.6375 60.815624 521.27814 60.55Q520.9344 60.284374 520.0125 59.9875Q519.10626 59.690624 518.575 59.39375Q517.1219 58.6125 517.1219 57.284374Q517.1219 56.596874 517.5125 56.05Q517.90314 55.503124 518.6219 55.20625Q519.35626 54.89375 520.2625 54.89375Q521.1844 54.89375 521.8875 55.2375Q522.60626 55.565624 522.9969 56.175Q523.40314 56.76875 523.40314 57.534374L521.6375 57.534374Q521.6375 56.95625 521.2625 56.628124Q520.90314 56.3 520.23126 56.3Q519.59064 56.3 519.23126 56.58125Q518.8719 56.846874 518.8719 57.284374Q518.8719 57.70625 519.29376 57.9875Q519.71564 58.26875 520.52814 58.51875Q522.02814 58.971874 522.71564 59.64375Q523.40314 60.3 523.40314 61.3Q523.40314 62.409374 522.5594 63.05Q521.73126 63.675 520.3094 63.675Q519.325 63.675 518.5125 63.315624Q517.7 62.940624 517.27814 62.315624Q516.85626 61.690624 516.85626 60.8625L518.6219 60.8625Q518.6219 62.284374 520.3094 62.284374Q520.9344 62.284374 521.27814 62.034374Q521.6375 61.76875 521.6375 61.315624ZM527.0125 63.675Q525.6219 63.675 524.7469 62.815624Q523.8719 61.95625 523.8719 60.534374L523.8719 60.3625Q523.8719 59.409374 524.23126 58.659374Q524.60626 57.909374 525.27814 57.503124Q525.96564 57.096874 526.825 57.096874Q528.1375 57.096874 528.8719 57.925Q529.6219 58.7375 529.6219 60.2375L529.6219 60.925L525.59064 60.925Q525.66876 61.55 526.075 61.925Q526.4969 62.3 527.1375 62.3Q528.10626 62.3 528.65314 61.596874L529.4969 62.51875Q529.10626 63.065624 528.45 63.378124Q527.8094 63.675 527.0125 63.675ZM526.825 58.45625Q526.325 58.45625 526.0125 58.8Q525.7 59.14375 525.60626 59.76875L527.96564 59.76875L527.96564 59.64375Q527.95 59.08125 527.65314 58.76875Q527.3719 58.45625 526.825 58.45625ZM533.0125 63.675Q531.6219 63.675 530.7469 62.815624Q529.8719 61.95625 529.8719 60.534374L529.8719 60.3625Q529.8719 59.409374 530.23126 58.659374Q530.60626 57.909374 531.27814 57.503124Q531.96564 57.096874 532.825 57.096874Q534.1375 57.096874 534.8719 57.925Q535.6219 58.7375 535.6219 60.2375L535.6219 60.925L531.59064 60.925Q531.66876 61.55 532.075 61.925Q532.4969 62.3 533.1375 62.3Q534.10626 62.3 534.65314 61.596874L535.4969 62.51875Q535.10626 63.065624 534.45 63.378124Q533.8094 63.675 533.0125 63.675ZM532.825 58.45625Q532.325 58.45625 532.0125 58.8Q531.7 59.14375 531.60626 59.76875L533.96564 59.76875L533.96564 59.64375Q533.95 59.08125 533.65314 58.76875Q533.3719 58.45625 532.825 58.45625ZM535.84064 60.33125Q535.84064 58.846874 536.4969 57.971874Q537.16876 57.096874 538.325 57.096874Q539.2469 57.096874 539.85626 57.784374L539.85626 54.55L541.54376 54.55L541.54376 63.55L540.02814 63.55L539.9344 62.878124Q539.3094 63.675 538.3094 63.675Q537.1844 63.675 536.5125 62.8Q535.84064 61.909374 535.84064 60.33125ZM537.52814 60.45625Q537.52814 61.346874 537.84064 61.83125Q538.15314 62.3 538.7469 62.3Q539.52814 62.3 539.85626 61.628124L539.85626 59.128124Q539.52814 58.471874 538.7625 58.471874Q537.52814 58.471874 537.52814 60.45625ZM549.3719 60.425L547.96564 60.425L547.96564 63.55L546.21564 63.55L546.21564 55.01875L549.3875 55.01875Q550.8875 55.01875 551.7 55.690624Q552.52814 56.3625 552.52814 57.596874Q552.52814 58.471874 552.15314 59.05Q551.77814 59.628124 551.0125 59.9875L552.85626 63.471874L552.85626 63.55L550.96564 63.55L549.3719 60.425ZM547.96564 59.003124L549.3875 59.003124Q550.04376 59.003124 550.40314 58.675Q550.77814 58.33125 550.77814 57.7375Q550.77814 57.128124 550.4344 56.784374Q550.09064 56.440624 549.3875 56.440624L547.96564 56.440624L547.96564 59.003124ZM553.84064 60.315624Q553.84064 59.378124 554.2 58.64375Q554.5594 57.89375 555.2469 57.503124Q555.9344 57.096874 556.825 57.096874Q558.1219 57.096874 558.91876 57.878124Q559.73126 58.659374 559.825 60.003124L559.84064 60.440624Q559.84064 61.909374 559.02814 62.8Q558.21564 63.675 556.84064 63.675Q555.46564 63.675 554.65314 62.8Q553.84064 61.909374 553.84064 60.39375L553.84064 60.315624ZM555.52814 60.440624Q555.52814 61.346874 555.8719 61.83125Q556.21564 62.3 556.84064 62.3Q557.46564 62.3 557.8094 61.83125Q558.15314 61.3625 558.15314 60.315624Q558.15314 59.440624 557.8094 58.95625Q557.46564 58.45625 556.825 58.45625Q556.21564 58.45625 555.8719 58.940624Q555.52814 59.425 555.52814 60.440624ZM564.90314 62.909374Q564.27814 63.675 563.16876 63.675Q562.1375 63.675 561.60626 63.08125Q561.075 62.4875 561.0594 61.3625L561.0594 57.20625L562.7469 57.20625L562.7469 61.3Q562.7469 62.3 563.65314 62.3Q564.5125 62.3 564.84064 61.690624L564.84064 57.20625L566.54376 57.20625L566.54376 63.55L564.95 63.55L564.90314 62.909374ZM569.65314 57.20625L569.71564 57.940624Q570.3875 57.096874 571.52814 57.096874Q572.54376 57.096874 573.02814 57.690624Q573.52814 58.26875 573.54376 59.45625L573.54376 63.55L571.84064 63.55L571.84064 59.4875Q571.84064 58.95625 571.60626 58.721874Q571.3719 58.471874 570.825 58.471874Q570.1219 58.471874 569.7625 59.08125L569.7625 63.55L568.0594 63.55L568.0594 57.20625L569.65314 57.20625ZM574.84064 60.33125Q574.84064 58.846874 575.4969 57.971874Q576.16876 57.096874 577.325 57.096874Q578.2469 57.096874 578.85626 57.784374L578.85626 54.55L580.54376 54.55L580.54376 63.55L579.02814 63.55L578.9344 62.878124Q578.3094 63.675 577.3094 63.675Q576.1844 63.675 575.5125 62.8Q574.84064 61.909374 574.84064 60.33125ZM576.52814 60.45625Q576.52814 61.346874 576.84064 61.83125Q577.15314 62.3 577.7469 62.3Q578.52814 62.3 578.85626 61.628124L578.85626 59.128124Q578.52814 58.471874 577.7625 58.471874Q576.52814 58.471874 576.52814 60.45625Z" fill-rule="nonzero"/><path fill="#828487" d="M561.825 73.97188L558.52814 81.55L556.7469 81.55L560.04376 74.39375L555.8094 74.39375L555.8094 73.01875L561.825 73.01875L561.825 73.97188ZM563.1844 80.72188Q563.1844 80.31563 563.45 80.06563Q563.73126 79.81563 564.1375 79.81563Q564.5594 79.81563 564.825 80.06563Q565.10626 80.31563 565.10626 80.72188Q565.10626 81.1125 564.825 81.3625Q564.5594 81.6125 564.1375 81.6125Q563.73126 81.6125 563.45 81.3625Q563.1844 81.1125 563.1844 80.72188ZM571.77814 78.01875Q571.77814 79.78438 571.04376 80.7375Q570.3094 81.675 568.90314 81.675Q567.4969 81.675 566.7625 80.75313Q566.02814 79.83125 566.0125 78.1125L566.0125 76.53438Q566.0125 74.75313 566.7469 73.83125Q567.4969 72.89375 568.8875 72.89375Q570.27814 72.89375 571.0125 73.81563Q571.7625 74.7375 571.77814 76.45625L571.77814 78.01875ZM570.075 76.3Q570.075 75.2375 569.77814 74.75313Q569.4969 74.26875 568.8875 74.26875Q568.29376 74.26875 567.9969 74.7375Q567.71564 75.19063 567.7 76.175L567.7 78.2375Q567.7 79.28438 567.98126 79.8Q568.2625 80.3 568.90314 80.3Q569.5125 80.3 569.79376 79.81563Q570.075 79.33125 570.075 78.33125L570.075 76.3ZM573.0125 74.65938Q573.0125 73.87813 573.5125 73.39375Q574.02814 72.89375 574.85626 72.89375Q575.6844 72.89375 576.2 73.37813Q576.71564 73.8625 576.71564 74.69063L576.71564 75.1125Q576.71564 75.89375 576.2 76.37813Q575.6844 76.8625 574.8719 76.8625Q574.02814 76.8625 573.5125 76.37813Q573.0125 75.89375 573.0125 75.08125L573.0125 74.65938ZM574.1375 75.1125Q574.1375 75.45625 574.34064 75.675Q574.54376 75.89375 574.8719 75.89375Q575.2 75.89375 575.3875 75.675Q575.575 75.45625 575.575 75.09688L575.575 74.65938Q575.575 74.3 575.3875 74.09688Q575.2 73.87813 574.85626 73.87813Q574.52814 73.87813 574.325 74.09688Q574.1375 74.3 574.1375 74.675L574.1375 75.1125ZM577.09064 79.45625Q577.09064 78.65938 577.60626 78.19063Q578.1219 77.70625 578.9344 77.70625Q579.7625 77.70625 580.27814 78.19063Q580.79376 78.65938 580.79376 79.4875L580.79376 79.90938Q580.79376 80.70625 580.29376 81.19063Q579.79376 81.675 578.95 81.675Q578.10626 81.675 577.59064 81.19063Q577.09064 80.69063 577.09064 79.89375L577.09064 79.45625ZM578.21564 79.90938Q578.21564 80.2375 578.41876 80.47188Q578.6375 80.69063 578.95 80.69063Q579.66876 80.69063 579.66876 79.90938L579.66876 79.45625Q579.66876 79.1125 579.46564 78.89375Q579.2625 78.675 578.9344 78.675Q578.60626 78.675 578.40314 78.89375Q578.21564 79.1125 578.21564 79.47188L578.21564 79.90938ZM575.2 80.90938L574.3719 80.47188L578.54376 73.8L579.3719 74.2375L575.2 80.90938Z" fill-rule="nonzero"/><path stroke="#abadaf" stroke-width="1.0" stroke-linecap="butt" d="M581.45 68.05L472.95 68.05L344.2487 33.195023" fill-rule="nonzero"/><path fill="#828487" d="M346.2487 33.195023C346.2487 32.09045 345.35327 31.19502 344.2487 31.19502C343.1441 31.19502 342.2487 32.09045 342.2487 33.195023C342.2487 34.29959 343.1441 35.195023 344.2487 35.195023C345.35327 35.195023 346.2487 34.29959 346.2487 33.195023" fill-rule="nonzero"/><path fill="#ffffff" d="M507.96564 93.55L507.96564 96.55L506.21564 96.55L506.21564 88.01875L509.54376 88.01875Q510.4969 88.01875 511.23126 88.37813Q511.96564 88.72188 512.35626 89.37813Q512.7469 90.01875 512.7469 90.84688Q512.7469 92.09688 511.8875 92.83125Q511.02814 93.55 509.5125 93.55L507.96564 93.55ZM507.96564 92.1125L509.54376 92.1125Q510.23126 92.1125 510.59064 91.78438Q510.96564 91.45625 510.96564 90.84688Q510.96564 90.22188 510.59064 89.84688Q510.23126 89.45625 509.575 89.44063L507.96564 89.44063L507.96564 92.1125ZM517.66876 91.8Q517.325 91.75313 517.0594 91.75313Q516.09064 91.75313 515.79376 92.39375L515.79376 96.55L514.10626 96.55L514.10626 90.20625L515.7 90.20625L515.7469 90.97188Q516.2625 90.09688 517.15314 90.09688Q517.4344 90.09688 517.6844 90.175L517.66876 91.8ZM519.8875 96.55L518.1844 96.55L518.1844 90.20625L519.8875 90.20625L519.8875 96.55ZM518.09064 88.56563Q518.09064 88.19063 518.34064 87.94063Q518.60626 87.69063 519.04376 87.69063Q519.46564 87.69063 519.71564 87.94063Q519.98126 88.19063 519.98126 88.56563Q519.98126 88.95625 519.71564 89.20625Q519.46564 89.44063 519.02814 89.44063Q518.60626 89.44063 518.34064 89.20625Q518.09064 88.95625 518.09064 88.56563ZM523.48126 94.4875L524.65314 90.20625L526.41876 90.20625L524.27814 96.55L522.66876 96.55L520.52814 90.20625L522.29376 90.20625L523.48126 94.4875ZM530.77814 96.55Q530.65314 96.31563 530.60626 95.9875Q529.9969 96.675 529.0125 96.675Q528.075 96.675 527.46564 96.12813Q526.85626 95.58125 526.85626 94.76875Q526.85626 93.75313 527.59064 93.22188Q528.34064 92.675 529.7625 92.675L530.52814 92.675L530.52814 92.31563Q530.52814 91.87813 530.3094 91.6125Q530.09064 91.34688 529.59064 91.34688Q529.16876 91.34688 528.91876 91.55Q528.6844 91.75313 528.6844 92.1125L526.9969 92.1125Q526.9969 91.56563 527.325 91.09688Q527.66876 90.62813 528.29376 90.3625Q528.91876 90.09688 529.6844 90.09688Q530.85626 90.09688 531.54376 90.69063Q532.23126 91.26875 532.23126 92.33125L532.23126 95.08125Q532.2469 95.9875 532.48126 96.45625L532.48126 96.55L530.77814 96.55ZM529.3719 95.37813Q529.7469 95.37813 530.0594 95.20625Q530.3875 95.03438 530.52814 94.75313L530.52814 93.65938L529.90314 93.65938Q528.6375 93.65938 528.54376 94.55L528.54376 94.64375Q528.54376 94.95625 528.7625 95.175Q528.98126 95.37813 529.3719 95.37813ZM535.1219 88.64375L535.1219 90.20625L536.21564 90.20625L536.21564 91.45625L535.1219 91.45625L535.1219 94.6125Q535.1219 94.97188 535.2625 95.12813Q535.40314 95.26875 535.77814 95.26875Q536.0594 95.26875 536.27814 95.2375L536.27814 96.51875Q535.77814 96.675 535.2469 96.675Q533.46564 96.675 533.4344 94.8625L533.4344 91.45625L532.5125 91.45625L532.5125 90.20625L533.4344 90.20625L533.4344 88.64375L535.1219 88.64375ZM540.0125 96.675Q538.6219 96.675 537.7469 95.81563Q536.8719 94.95625 536.8719 93.53438L536.8719 93.3625Q536.8719 92.40938 537.23126 91.65938Q537.60626 90.90938 538.27814 90.50313Q538.96564 90.09688 539.825 90.09688Q541.1375 90.09688 541.8719 90.925Q542.6219 91.7375 542.6219 93.2375L542.6219 93.925L538.59064 93.925Q538.66876 94.55 539.075 94.925Q539.4969 95.3 540.1375 95.3Q541.10626 95.3 541.65314 94.59688L542.4969 95.51875Q542.10626 96.06563 541.45 96.37813Q540.8094 96.675 540.0125 96.675ZM539.825 91.45625Q539.325 91.45625 539.0125 91.8Q538.7 92.14375 538.60626 92.76875L540.96564 92.76875L540.96564 92.64375Q540.95 92.08125 540.65314 91.76875Q540.3719 91.45625 539.825 91.45625ZM549.3719 93.425L547.96564 93.425L547.96564 96.55L546.21564 96.55L546.21564 88.01875L549.3875 88.01875Q550.8875 88.01875 551.7 88.69063Q552.52814 89.3625 552.52814 90.59688Q552.52814 91.47188 552.15314 92.05Q551.77814 92.62813 551.0125 92.9875L552.85626 96.47188L552.85626 96.55L550.96564 96.55L549.3719 93.425ZM547.96564 92.00313L549.3875 92.00313Q550.04376 92.00313 550.40314 91.675Q550.77814 91.33125 550.77814 90.7375Q550.77814 90.12813 550.4344 89.78438Q550.09064 89.44063 549.3875 89.44063L547.96564 89.44063L547.96564 92.00313ZM553.84064 93.31563Q553.84064 92.37813 554.2 91.64375Q554.5594 90.89375 555.2469 90.50313Q555.9344 90.09688 556.825 90.09688Q558.1219 90.09688 558.91876 90.87813Q559.73126 91.65938 559.825 93.00313L559.84064 93.44063Q559.84064 94.90938 559.02814 95.8Q558.21564 96.675 556.84064 96.675Q555.46564 96.675 554.65314 95.8Q553.84064 94.90938 553.84064 93.39375L553.84064 93.31563ZM555.52814 93.44063Q555.52814 94.34688 555.8719 94.83125Q556.21564 95.3 556.84064 95.3Q557.46564 95.3 557.8094 94.83125Q558.15314 94.3625 558.15314 93.31563Q558.15314 92.44063 557.8094 91.95625Q557.46564 91.45625 556.825 91.45625Q556.21564 91.45625 555.8719 91.94063Q555.52814 92.425 555.52814 93.44063ZM564.90314 95.90938Q564.27814 96.675 563.16876 96.675Q562.1375 96.675 561.60626 96.08125Q561.075 95.4875 561.0594 94.3625L561.0594 90.20625L562.7469 90.20625L562.7469 94.3Q562.7469 95.3 563.65314 95.3Q564.5125 95.3 564.84064 94.69063L564.84064 90.20625L566.54376 90.20625L566.54376 96.55L564.95 96.55L564.90314 95.90938ZM569.65314 90.20625L569.71564 90.94063Q570.3875 90.09688 571.52814 90.09688Q572.54376 90.09688 573.02814 90.69063Q573.52814 91.26875 573.54376 92.45625L573.54376 96.55L571.84064 96.55L571.84064 92.4875Q571.84064 91.95625 571.60626 91.72188Q571.3719 91.47188 570.825 91.47188Q570.1219 91.47188 569.7625 92.08125L569.7625 96.55L568.0594 96.55L568.0594 90.20625L569.65314 90.20625ZM574.84064 93.33125Q574.84064 91.84688 575.4969 90.97188Q576.16876 90.09688 577.325 90.09688Q578.2469 90.09688 578.85626 90.78438L578.85626 87.55L580.54376 87.55L580.54376 96.55L579.02814 96.55L578.9344 95.87813Q578.3094 96.675 577.3094 96.675Q576.1844 96.675 575.5125 95.8Q574.84064 94.90938 574.84064 93.33125ZM576.52814 93.45625Q576.52814 94.34688 576.84064 94.83125Q577.15314 95.3 577.7469 95.3Q578.52814 95.3 578.85626 94.62813L578.85626 92.12813Q578.52814 91.47188 577.7625 91.47188Q576.52814 91.47188 576.52814 93.45625Z" fill-rule="nonzero"/><path fill="#828487" d="M559.9969 111.14375Q559.325 111.78438 558.45 111.78438Q557.3094 111.78438 556.6219 111.01875Q555.95 110.2375 555.95 108.925Q555.95 108.08125 556.3094 107.37813Q556.6844 106.675 557.34064 106.28438Q557.9969 105.89375 558.825 105.89375Q559.66876 105.89375 560.325 106.31563Q560.98126 106.7375 561.34064 107.53438Q561.7 108.33125 561.71564 109.34688L561.71564 109.97188Q561.71564 112.1125 560.65314 113.33125Q559.59064 114.55 557.6375 114.62813L557.23126 114.62813L557.23126 113.22188L557.60626 113.20625Q559.8094 113.1125 559.9969 111.14375ZM558.85626 110.4875Q559.27814 110.4875 559.5594 110.28438Q559.85626 110.06563 560.0125 109.76875L560.0125 109.08125Q560.0125 108.22188 559.6844 107.75313Q559.35626 107.26875 558.8094 107.26875Q558.29376 107.26875 557.96564 107.7375Q557.6375 108.19063 557.6375 108.89375Q557.6375 109.59688 557.95 110.05Q558.27814 110.4875 558.85626 110.4875ZM563.1844 113.72188Q563.1844 113.31563 563.45 113.06563Q563.73126 112.81563 564.1375 112.81563Q564.5594 112.81563 564.825 113.06563Q565.10626 113.31563 565.10626 113.72188Q565.10626 114.1125 564.825 114.3625Q564.5594 114.6125 564.1375 114.6125Q563.73126 114.6125 563.45 114.3625Q563.1844 114.1125 563.1844 113.72188ZM571.77814 111.01875Q571.77814 112.78438 571.04376 113.7375Q570.3094 114.675 568.90314 114.675Q567.4969 114.675 566.7625 113.75313Q566.02814 112.83125 566.0125 111.1125L566.0125 109.53438Q566.0125 107.75313 566.7469 106.83125Q567.4969 105.89375 568.8875 105.89375Q570.27814 105.89375 571.0125 106.81563Q571.7625 107.7375 571.77814 109.45625L571.77814 111.01875ZM570.075 109.3Q570.075 108.2375 569.77814 107.75313Q569.4969 107.26875 568.8875 107.26875Q568.29376 107.26875 567.9969 107.7375Q567.71564 108.19063 567.7 109.175L567.7 111.2375Q567.7 112.28438 567.98126 112.8Q568.2625 113.3 568.90314 113.3Q569.5125 113.3 569.79376 112.81563Q570.075 112.33125 570.075 111.33125L570.075 109.3ZM573.0125 107.65938Q573.0125 106.87813 573.5125 106.39375Q574.02814 105.89375 574.85626 105.89375Q575.6844 105.89375 576.2 106.37813Q576.71564 106.8625 576.71564 107.69063L576.71564 108.1125Q576.71564 108.89375 576.2 109.37813Q575.6844 109.8625 574.8719 109.8625Q574.02814 109.8625 573.5125 109.37813Q573.0125 108.89375 573.0125 108.08125L573.0125 107.65938ZM574.1375 108.1125Q574.1375 108.45625 574.34064 108.675Q574.54376 108.89375 574.8719 108.89375Q575.2 108.89375 575.3875 108.675Q575.575 108.45625 575.575 108.09688L575.575 107.65938Q575.575 107.3 575.3875 107.09688Q575.2 106.87813 574.85626 106.87813Q574.52814 106.87813 574.325 107.09688Q574.1375 107.3 574.1375 107.675L574.1375 108.1125ZM577.09064 112.45625Q577.09064 111.65938 577.60626 111.19063Q578.1219 110.70625 578.9344 110.70625Q579.7625 110.70625 580.27814 111.19063Q580.79376 111.65938 580.79376 112.4875L580.79376 112.90938Q580.79376 113.70625 580.29376 114.19063Q579.79376 114.675 578.95 114.675Q578.10626 114.675 577.59064 114.19063Q577.09064 113.69063 577.09064 112.89375L577.09064 112.45625ZM578.21564 112.90938Q578.21564 113.2375 578.41876 113.47188Q578.6375 113.69063 578.95 113.69063Q579.66876 113.69063 579.66876 112.90938L579.66876 112.45625Q579.66876 112.1125 579.46564 111.89375Q579.2625 111.675 578.9344 111.675Q578.60626 111.675 578.40314 111.89375Q578.21564 112.1125 578.21564 112.47188L578.21564 112.90938ZM575.2 113.90938L574.3719 113.47188L578.54376 106.8L579.3719 107.2375L575.2 113.90938Z" fill-rule="nonzero"/><path stroke="#abadaf" stroke-width="1.0" stroke-linecap="butt" d="M581.45 101.05L472.95 101.05L412.1489 73.3511" fill-rule="nonzero"/><path fill="#828487" d="M414.1489 73.3511C414.1489 72.24653 413.25348 71.3511 412.1489 71.3511C411.04434 71.3511 410.1489 72.24653 410.1489 73.3511C410.1489 74.455666 411.04434 75.3511 412.1489 75.3511C413.25348 75.3511 414.1489 74.455666 414.1489 73.3511" fill-rule="nonzero"/><path fill="#ffffff" d="M516.34064 147.79648L512.96564 147.79648L512.96564 151.28085L511.21564 151.28085L511.21564 142.7496L516.7625 142.7496L516.7625 144.17148L512.96564 144.17148L512.96564 146.3746L516.34064 146.3746L516.34064 147.79648ZM517.84064 148.04648Q517.84064 147.10898 518.2 146.3746Q518.5594 145.6246 519.2469 145.23398Q519.9344 144.82773 520.825 144.82773Q522.1219 144.82773 522.91876 145.60898Q523.73126 146.39023 523.825 147.73398L523.84064 148.17148Q523.84064 149.64023 523.02814 150.53085Q522.21564 151.40585 520.84064 151.40585Q519.46564 151.40585 518.65314 150.53085Q517.84064 149.64023 517.84064 148.1246L517.84064 148.04648ZM519.52814 148.17148Q519.52814 149.07773 519.8719 149.5621Q520.21564 150.03085 520.84064 150.03085Q521.46564 150.03085 521.8094 149.5621Q522.15314 149.09335 522.15314 148.04648Q522.15314 147.17148 521.8094 146.6871Q521.46564 146.1871 520.825 146.1871Q520.21564 146.1871 519.8719 146.67148Q519.52814 147.15585 519.52814 148.17148ZM528.90314 150.64023Q528.27814 151.40585 527.16876 151.40585Q526.1375 151.40585 525.60626 150.8121Q525.075 150.21835 525.0594 149.09335L525.0594 144.9371L526.7469 144.9371L526.7469 149.03085Q526.7469 150.03085 527.65314 150.03085Q528.5125 150.03085 528.84064 149.42148L528.84064 144.9371L530.54376 144.9371L530.54376 151.28085L528.95 151.28085L528.90314 150.64023ZM533.65314 144.9371L533.71564 145.67148Q534.3875 144.82773 535.52814 144.82773Q536.54376 144.82773 537.02814 145.42148Q537.52814 145.9996 537.54376 147.1871L537.54376 151.28085L535.84064 151.28085L535.84064 147.21835Q535.84064 146.6871 535.60626 146.45273Q535.3719 146.20273 534.825 146.20273Q534.1219 146.20273 533.7625 146.8121L533.7625 151.28085L532.0594 151.28085L532.0594 144.9371L533.65314 144.9371ZM538.84064 148.0621Q538.84064 146.57773 539.4969 145.70273Q540.16876 144.82773 541.325 144.82773Q542.2469 144.82773 542.85626 145.51523L542.85626 142.28085L544.54376 142.28085L544.54376 151.28085L543.02814 151.28085L542.9344 150.60898Q542.3094 151.40585 541.3094 151.40585Q540.1844 151.40585 539.5125 150.53085Q538.84064 149.64023 538.84064 148.0621ZM540.52814 148.1871Q540.52814 149.07773 540.84064 149.5621Q541.15314 150.03085 541.7469 150.03085Q542.52814 150.03085 542.85626 149.35898L542.85626 146.85898Q542.52814 146.20273 541.7625 146.20273Q540.52814 146.20273 540.52814 148.1871ZM549.77814 151.28085Q549.65314 151.04648 549.60626 150.71835Q548.9969 151.40585 548.0125 151.40585Q547.075 151.40585 546.46564 150.85898Q545.85626 150.3121 545.85626 149.4996Q545.85626 148.48398 546.59064 147.95273Q547.34064 147.40585 548.7625 147.40585L549.52814 147.40585L549.52814 147.04648Q549.52814 146.60898 549.3094 146.34335Q549.09064 146.07773 548.59064 146.07773Q548.16876 146.07773 547.91876 146.28085Q547.6844 146.48398 547.6844 146.84335L545.9969 146.84335Q545.9969 146.29648 546.325 145.82773Q546.66876 145.35898 547.29376 145.09335Q547.91876 144.82773 548.6844 144.82773Q549.85626 144.82773 550.54376 145.42148Q551.23126 145.9996 551.23126 147.0621L551.23126 149.8121Q551.2469 150.71835 551.48126 151.1871L551.48126 151.28085L549.77814 151.28085ZM548.3719 150.10898Q548.7469 150.10898 549.0594 149.9371Q549.3875 149.76523 549.52814 149.48398L549.52814 148.39023L548.90314 148.39023Q547.6375 148.39023 547.54376 149.28085L547.54376 149.3746Q547.54376 149.6871 547.7625 149.90585Q547.98126 150.10898 548.3719 150.10898ZM554.1219 143.3746L554.1219 144.9371L555.21564 144.9371L555.21564 146.1871L554.1219 146.1871L554.1219 149.34335Q554.1219 149.70273 554.2625 149.85898Q554.40314 149.9996 554.77814 149.9996Q555.0594 149.9996 555.27814 149.96835L555.27814 151.2496Q554.77814 151.40585 554.2469 151.40585Q552.46564 151.40585 552.4344 149.59335L552.4344 146.1871L551.5125 146.1871L551.5125 144.9371L552.4344 144.9371L552.4344 143.3746L554.1219 143.3746ZM557.8875 151.28085L556.1844 151.28085L556.1844 144.9371L557.8875 144.9371L557.8875 151.28085ZM556.09064 143.29648Q556.09064 142.92148 556.34064 142.67148Q556.60626 142.42148 557.04376 142.42148Q557.46564 142.42148 557.71564 142.67148Q557.98126 142.92148 557.98126 143.29648Q557.98126 143.6871 557.71564 143.9371Q557.46564 144.17148 557.02814 144.17148Q556.60626 144.17148 556.34064 143.9371Q556.09064 143.6871 556.09064 143.29648ZM558.84064 148.04648Q558.84064 147.10898 559.2 146.3746Q559.5594 145.6246 560.2469 145.23398Q560.9344 144.82773 561.825 144.82773Q563.1219 144.82773 563.91876 145.60898Q564.73126 146.39023 564.825 147.73398L564.84064 148.17148Q564.84064 149.64023 564.02814 150.53085Q563.21564 151.40585 561.84064 151.40585Q560.46564 151.40585 559.65314 150.53085Q558.84064 149.64023 558.84064 148.1246L558.84064 148.04648ZM560.52814 148.17148Q560.52814 149.07773 560.8719 149.5621Q561.21564 150.03085 561.84064 150.03085Q562.46564 150.03085 562.8094 149.5621Q563.15314 149.09335 563.15314 148.04648Q563.15314 147.17148 562.8094 146.6871Q562.46564 146.1871 561.825 146.1871Q561.21564 146.1871 560.8719 146.67148Q560.52814 147.15585 560.52814 148.17148ZM567.65314 144.9371L567.71564 145.67148Q568.3875 144.82773 569.52814 144.82773Q570.54376 144.82773 571.02814 145.42148Q571.52814 145.9996 571.54376 147.1871L571.54376 151.28085L569.84064 151.28085L569.84064 147.21835Q569.84064 146.6871 569.60626 146.45273Q569.3719 146.20273 568.825 146.20273Q568.1219 146.20273 567.7625 146.8121L567.7625 151.28085L566.0594 151.28085L566.0594 144.9371L567.65314 144.9371ZM576.77814 151.28085Q576.65314 151.04648 576.60626 150.71835Q575.9969 151.40585 575.0125 151.40585Q574.075 151.40585 573.46564 150.85898Q572.85626 150.3121 572.85626 149.4996Q572.85626 148.48398 573.59064 147.95273Q574.34064 147.40585 575.7625 147.40585L576.52814 147.40585L576.52814 147.04648Q576.52814 146.60898 576.3094 146.34335Q576.09064 146.07773 575.59064 146.07773Q575.16876 146.07773 574.91876 146.28085Q574.6844 146.48398 574.6844 146.84335L572.9969 146.84335Q572.9969 146.29648 573.325 145.82773Q573.66876 145.35898 574.29376 145.09335Q574.91876 144.82773 575.6844 144.82773Q576.85626 144.82773 577.54376 145.42148Q578.23126 145.9996 578.23126 147.0621L578.23126 149.8121Q578.2469 150.71835 578.48126 151.1871L578.48126 151.28085L576.77814 151.28085ZM575.3719 150.10898Q575.7469 150.10898 576.0594 149.9371Q576.3875 149.76523 576.52814 149.48398L576.52814 148.39023L575.90314 148.39023Q574.6375 148.39023 574.54376 149.28085L574.54376 149.3746Q574.54376 149.6871 574.7625 149.90585Q574.98126 150.10898 575.3719 150.10898ZM580.8875 151.28085L579.1844 151.28085L579.1844 142.28085L580.8875 142.28085L580.8875 151.28085Z" fill-rule="nonzero"/><path fill="#828487" d="M553.1375 169.28085L551.45 169.28085L551.45 162.7496L549.4344 163.3746L549.4344 161.9996L552.96564 160.73398L553.1375 160.73398L553.1375 169.28085ZM561.77814 165.7496Q561.77814 167.51523 561.04376 168.46835Q560.3094 169.40585 558.90314 169.40585Q557.4969 169.40585 556.7625 168.48398Q556.02814 167.5621 556.0125 165.84335L556.0125 164.26523Q556.0125 162.48398 556.7469 161.5621Q557.4969 160.6246 558.8875 160.6246Q560.27814 160.6246 561.0125 161.54648Q561.7625 162.46835 561.77814 164.1871L561.77814 165.7496ZM560.075 164.03085Q560.075 162.96835 559.77814 162.48398Q559.4969 161.9996 558.8875 161.9996Q558.29376 161.9996 557.9969 162.46835Q557.71564 162.92148 557.7 163.90585L557.7 165.96835Q557.7 167.01523 557.98126 167.53085Q558.2625 168.03085 558.90314 168.03085Q559.5125 168.03085 559.79376 167.54648Q560.075 167.0621 560.075 166.0621L560.075 164.03085ZM563.1844 168.45273Q563.1844 168.04648 563.45 167.79648Q563.73126 167.54648 564.1375 167.54648Q564.5594 167.54648 564.825 167.79648Q565.10626 168.04648 565.10626 168.45273Q565.10626 168.84335 564.825 169.09335Q564.5594 169.34335 564.1375 169.34335Q563.73126 169.34335 563.45 169.09335Q563.1844 168.84335 563.1844 168.45273ZM571.77814 165.7496Q571.77814 167.51523 571.04376 168.46835Q570.3094 169.40585 568.90314 169.40585Q567.4969 169.40585 566.7625 168.48398Q566.02814 167.5621 566.0125 165.84335L566.0125 164.26523Q566.0125 162.48398 566.7469 161.5621Q567.4969 160.6246 568.8875 160.6246Q570.27814 160.6246 571.0125 161.54648Q571.7625 162.46835 571.77814 164.1871L571.77814 165.7496ZM570.075 164.03085Q570.075 162.96835 569.77814 162.48398Q569.4969 161.9996 568.8875 161.9996Q568.29376 161.9996 567.9969 162.46835Q567.71564 162.92148 567.7 163.90585L567.7 165.96835Q567.7 167.01523 567.98126 167.53085Q568.2625 168.03085 568.90314 168.03085Q569.5125 168.03085 569.79376 167.54648Q570.075 167.0621 570.075 166.0621L570.075 164.03085ZM573.0125 162.39023Q573.0125 161.60898 573.5125 161.1246Q574.02814 160.6246 574.85626 160.6246Q575.6844 160.6246 576.2 161.10898Q576.71564 161.59335 576.71564 162.42148L576.71564 162.84335Q576.71564 163.6246 576.2 164.10898Q575.6844 164.59335 574.8719 164.59335Q574.02814 164.59335 573.5125 164.10898Q573.0125 163.6246 573.0125 162.8121L573.0125 162.39023ZM574.1375 162.84335Q574.1375 163.1871 574.34064 163.40585Q574.54376 163.6246 574.8719 163.6246Q575.2 163.6246 575.3875 163.40585Q575.575 163.1871 575.575 162.82773L575.575 162.39023Q575.575 162.03085 575.3875 161.82773Q575.2 161.60898 574.85626 161.60898Q574.52814 161.60898 574.325 161.82773Q574.1375 162.03085 574.1375 162.40585L574.1375 162.84335ZM577.09064 167.1871Q577.09064 166.39023 577.60626 165.92148Q578.1219 165.4371 578.9344 165.4371Q579.7625 165.4371 580.27814 165.92148Q580.79376 166.39023 580.79376 167.21835L580.79376 167.64023Q580.79376 168.4371 580.29376 168.92148Q579.79376 169.40585 578.95 169.40585Q578.10626 169.40585 577.59064 168.92148Q577.09064 168.42148 577.09064 167.6246L577.09064 167.1871ZM578.21564 167.64023Q578.21564 167.96835 578.41876 168.20273Q578.6375 168.42148 578.95 168.42148Q579.66876 168.42148 579.66876 167.64023L579.66876 167.1871Q579.66876 166.84335 579.46564 166.6246Q579.2625 166.40585 578.9344 166.40585Q578.60626 166.40585 578.40314 166.6246Q578.21564 166.84335 578.21564 167.20273L578.21564 167.64023ZM575.2 168.64023L574.3719 168.20273L578.54376 161.53085L579.3719 161.96835L575.2 168.64023Z" fill-rule="nonzero"/><path stroke="#abadaf" stroke-width="1.0" stroke-linecap="butt" d="M581.45 155.78085L472.95 155.78085L455.7932 155.78085" fill-rule="nonzero"/><path fill="#828487" d="M457.7932 155.78085C457.7932 154.67628 456.8978 153.78085 455.7932 153.78085C454.68863 153.78085 453.7932 154.67628 453.7932 155.78085C453.7932 156.88542 454.68863 157.78085 455.7932 157.78085C456.8978 157.78085 457.7932 156.88542 457.7932 155.78085" fill-rule="nonzero"/><path fill="#ffffff" d="M503.96564 254.40735L503.96564 257.40735L502.21564 257.40735L502.21564 248.8761L505.54376 248.8761Q506.4969 248.8761 507.23126 249.23547Q507.96564 249.57922 508.35626 250.23547Q508.7469 250.8761 508.7469 251.70422Q508.7469 252.95422 507.8875 253.6886Q507.02814 254.40735 505.5125 254.40735L503.96564 254.40735ZM503.96564 252.96985L505.54376 252.96985Q506.23126 252.96985 506.59064 252.64172Q506.96564 252.3136 506.96564 251.70422Q506.96564 251.07922 506.59064 250.70422Q506.23126 250.3136 505.575 250.29797L503.96564 250.29797L503.96564 252.96985ZM513.90314 256.76672Q513.27814 257.53235 512.16876 257.53235Q511.1375 257.53235 510.60626 256.9386Q510.075 256.34485 510.0594 255.21985L510.0594 251.0636L511.7469 251.0636L511.7469 255.15735Q511.7469 256.15735 512.65314 256.15735Q513.5125 256.15735 513.84064 255.54797L513.84064 251.0636L515.54376 251.0636L515.54376 257.40735L513.95 257.40735L513.90314 256.76672ZM522.8094 254.29797Q522.8094 255.8136 522.15314 256.67297Q521.5125 257.53235 520.34064 257.53235Q519.3094 257.53235 518.7 256.73547L518.6219 257.40735L517.10626 257.40735L517.10626 248.40735L518.79376 248.40735L518.79376 251.64172Q519.3875 250.95422 520.34064 250.95422Q521.4969 250.95422 522.15314 251.8136Q522.8094 252.65735 522.8094 254.20422L522.8094 254.29797ZM521.1219 254.17297Q521.1219 253.20422 520.8094 252.76672Q520.5125 252.32922 519.90314 252.32922Q519.10626 252.32922 518.79376 252.98547L518.79376 255.48547Q519.10626 256.15735 519.91876 256.15735Q520.7469 256.15735 520.9969 255.34485Q521.1219 254.96985 521.1219 254.17297ZM525.8875 257.40735L524.1844 257.40735L524.1844 248.40735L525.8875 248.40735L525.8875 257.40735ZM528.8875 257.40735L527.1844 257.40735L527.1844 251.0636L528.8875 251.0636L528.8875 257.40735ZM527.09064 249.42297Q527.09064 249.04797 527.34064 248.79797Q527.60626 248.54797 528.04376 248.54797Q528.46564 248.54797 528.71564 248.79797Q528.98126 249.04797 528.98126 249.42297Q528.98126 249.8136 528.71564 250.0636Q528.46564 250.29797 528.02814 250.29797Q527.60626 250.29797 527.34064 250.0636Q527.09064 249.8136 527.09064 249.42297ZM532.73126 256.15735Q533.2 256.15735 533.4969 255.90735Q533.79376 255.64172 533.8094 255.21985L535.3875 255.21985Q535.3875 255.86047 535.04376 256.40735Q534.7 256.9386 534.09064 257.23547Q533.4969 257.53235 532.7625 257.53235Q531.40314 257.53235 530.6219 256.67297Q529.84064 255.79797 529.84064 254.26672L529.84064 254.15735Q529.84064 252.6886 530.6219 251.82922Q531.40314 250.95422 532.7625 250.95422Q533.95 250.95422 534.66876 251.6261Q535.3875 252.29797 535.3875 253.42297L533.8094 253.42297Q533.79376 252.9386 533.4969 252.6261Q533.2 252.3136 532.73126 252.3136Q532.1375 252.3136 531.825 252.7511Q531.52814 253.1886 531.52814 254.14172L531.52814 254.32922Q531.52814 255.29797 531.825 255.73547Q532.1219 256.15735 532.73126 256.15735ZM546.21564 253.32922Q546.21564 254.59485 545.7625 255.54797Q545.325 256.48547 544.4969 257.01672Q543.66876 257.53235 542.60626 257.53235Q541.54376 257.53235 540.7 257.01672Q539.8719 256.5011 539.41876 255.5636Q538.96564 254.61047 538.95 253.3761L538.95 252.95422Q538.95 251.70422 539.40314 250.7511Q539.85626 249.78235 540.6844 249.26672Q541.52814 248.7511 542.59064 248.7511Q543.65314 248.7511 544.48126 249.26672Q545.3094 249.78235 545.7625 250.7511Q546.21564 251.70422 546.21564 252.95422L546.21564 253.32922ZM544.4344 252.95422Q544.4344 251.61047 543.95 250.90735Q543.48126 250.20422 542.59064 250.20422Q541.7 250.20422 541.21564 250.90735Q540.7469 251.59485 540.73126 252.92297L540.73126 253.32922Q540.73126 254.64172 541.21564 255.36047Q541.7 256.07922 542.60626 256.07922Q543.48126 256.07922 543.95 255.39172Q544.4344 254.6886 544.4344 253.36047L544.4344 252.95422ZM547.5594 257.40735L547.5594 252.3136L546.6219 252.3136L546.6219 251.0636L547.5594 251.0636L547.5594 250.53235Q547.5594 249.45422 548.16876 248.8761Q548.79376 248.28235 549.8875 248.28235Q550.2469 248.28235 550.7469 248.40735L550.73126 249.71985Q550.52814 249.65735 550.21564 249.65735Q549.2625 249.65735 549.2625 250.5636L549.2625 251.0636L550.52814 251.0636L550.52814 252.3136L549.2625 252.3136L549.2625 257.40735L547.5594 257.40735ZM551.5594 257.40735L551.5594 252.3136L550.6219 252.3136L550.6219 251.0636L551.5594 251.0636L551.5594 250.53235Q551.5594 249.45422 552.16876 248.8761Q552.79376 248.28235 553.8875 248.28235Q554.2469 248.28235 554.7469 248.40735L554.73126 249.71985Q554.52814 249.65735 554.21564 249.65735Q553.2625 249.65735 553.2625 250.5636L553.2625 251.0636L554.52814 251.0636L554.52814 252.3136L553.2625 252.3136L553.2625 257.40735L551.5594 257.40735ZM558.0125 257.53235Q556.6219 257.53235 555.7469 256.67297Q554.8719 255.8136 554.8719 254.39172L554.8719 254.21985Q554.8719 253.26672 555.23126 252.51672Q555.60626 251.76672 556.27814 251.36047Q556.96564 250.95422 557.825 250.95422Q559.1375 250.95422 559.8719 251.78235Q560.6219 252.59485 560.6219 254.09485L560.6219 254.78235L556.59064 254.78235Q556.66876 255.40735 557.075 255.78235Q557.4969 256.15735 558.1375 256.15735Q559.10626 256.15735 559.65314 255.45422L560.4969 256.3761Q560.10626 256.92297 559.45 257.23547Q558.8094 257.53235 558.0125 257.53235ZM557.825 252.3136Q557.325 252.3136 557.0125 252.65735Q556.7 253.0011 556.60626 253.6261L558.96564 253.6261L558.96564 253.5011Q558.95 252.9386 558.65314 252.6261Q558.3719 252.3136 557.825 252.3136ZM564.66876 252.65735Q564.325 252.61047 564.0594 252.61047Q563.09064 252.61047 562.79376 253.2511L562.79376 257.40735L561.10626 257.40735L561.10626 251.0636L562.7 251.0636L562.7469 251.82922Q563.2625 250.95422 564.15314 250.95422Q564.4344 250.95422 564.6844 251.03235L564.66876 252.65735ZM566.8875 257.40735L565.1844 257.40735L565.1844 251.0636L566.8875 251.0636L566.8875 257.40735ZM565.09064 249.42297Q565.09064 249.04797 565.34064 248.79797Q565.60626 248.54797 566.04376 248.54797Q566.46564 248.54797 566.71564 248.79797Q566.98126 249.04797 566.98126 249.42297Q566.98126 249.8136 566.71564 250.0636Q566.46564 250.29797 566.02814 250.29797Q565.60626 250.29797 565.34064 250.0636Q565.09064 249.8136 565.09064 249.42297ZM569.65314 251.0636L569.71564 251.79797Q570.3875 250.95422 571.52814 250.95422Q572.54376 250.95422 573.02814 251.54797Q573.52814 252.1261 573.54376 253.3136L573.54376 257.40735L571.84064 257.40735L571.84064 253.34485Q571.84064 252.8136 571.60626 252.57922Q571.3719 252.32922 570.825 252.32922Q570.1219 252.32922 569.7625 252.9386L569.7625 257.40735L568.0594 257.40735L568.0594 251.0636L569.65314 251.0636ZM574.85626 254.1886Q574.85626 252.73547 575.54376 251.84485Q576.2469 250.95422 577.41876 250.95422Q578.46564 250.95422 579.04376 251.65735L579.1219 251.0636L580.65314 251.0636L580.65314 257.1886Q580.65314 258.03235 580.2625 258.64172Q579.8875 259.26672 579.2 259.57922Q578.52814 259.90735 577.60626 259.90735Q576.90314 259.90735 576.23126 259.6261Q575.575 259.34485 575.2469 258.90735L575.9969 257.8761Q576.6219 258.57922 577.52814 258.57922Q578.2 258.57922 578.575 258.21985Q578.95 257.86047 578.95 257.20422L578.95 256.86047Q578.3719 257.53235 577.40314 257.53235Q576.2625 257.53235 575.5594 256.64172Q574.85626 255.73547 574.85626 254.26672L574.85626 254.1886ZM576.54376 254.3136Q576.54376 255.17297 576.8875 255.67297Q577.2469 256.15735 577.84064 256.15735Q578.6219 256.15735 578.95 255.57922L578.95 252.90735Q578.60626 252.32922 577.85626 252.32922Q577.2469 252.32922 576.8875 252.82922Q576.54376 253.32922 576.54376 254.3136Z" fill-rule="nonzero"/><path fill="#828487" d="M553.1375 275.40735L551.45 275.40735L551.45 268.8761L549.4344 269.5011L549.4344 268.1261L552.96564 266.86047L553.1375 266.86047L553.1375 275.40735ZM561.8719 275.40735L556.02814 275.40735L556.02814 274.2511L558.79376 271.29797Q559.35626 270.6886 559.6219 270.21985Q559.90314 269.7511 559.90314 269.34485Q559.90314 268.76672 559.60626 268.45422Q559.325 268.1261 558.79376 268.1261Q558.21564 268.1261 557.8875 268.51672Q557.5594 268.90735 557.5594 269.5636L555.85626 269.5636Q555.85626 268.78235 556.23126 268.14172Q556.60626 267.48547 557.27814 267.1261Q557.96564 266.7511 558.825 266.7511Q560.1375 266.7511 560.8719 267.39172Q561.60626 268.01672 561.60626 269.17297Q561.60626 269.8136 561.27814 270.46985Q560.95 271.1261 560.15314 272.0011L558.21564 274.04797L561.8719 274.04797L561.8719 275.40735ZM563.1844 274.57922Q563.1844 274.17297 563.45 273.92297Q563.73126 273.67297 564.1375 273.67297Q564.5594 273.67297 564.825 273.92297Q565.10626 274.17297 565.10626 274.57922Q565.10626 274.96985 564.825 275.21985Q564.5594 275.46985 564.1375 275.46985Q563.73126 275.46985 563.45 275.21985Q563.1844 274.96985 563.1844 274.57922ZM571.77814 271.8761Q571.77814 273.64172 571.04376 274.59485Q570.3094 275.53235 568.90314 275.53235Q567.4969 275.53235 566.7625 274.61047Q566.02814 273.6886 566.0125 271.96985L566.0125 270.39172Q566.0125 268.61047 566.7469 267.6886Q567.4969 266.7511 568.8875 266.7511Q570.27814 266.7511 571.0125 267.67297Q571.7625 268.59485 571.77814 270.3136L571.77814 271.8761ZM570.075 270.15735Q570.075 269.09485 569.77814 268.61047Q569.4969 268.1261 568.8875 268.1261Q568.29376 268.1261 567.9969 268.59485Q567.71564 269.04797 567.7 270.03235L567.7 272.09485Q567.7 273.14172 567.98126 273.65735Q568.2625 274.15735 568.90314 274.15735Q569.5125 274.15735 569.79376 273.67297Q570.075 273.1886 570.075 272.1886L570.075 270.15735ZM573.0125 268.51672Q573.0125 267.73547 573.5125 267.2511Q574.02814 266.7511 574.85626 266.7511Q575.6844 266.7511 576.2 267.23547Q576.71564 267.71985 576.71564 268.54797L576.71564 268.96985Q576.71564 269.7511 576.2 270.23547Q575.6844 270.71985 574.8719 270.71985Q574.02814 270.71985 573.5125 270.23547Q573.0125 269.7511 573.0125 268.9386L573.0125 268.51672ZM574.1375 268.96985Q574.1375 269.3136 574.34064 269.53235Q574.54376 269.7511 574.8719 269.7511Q575.2 269.7511 575.3875 269.53235Q575.575 269.3136 575.575 268.95422L575.575 268.51672Q575.575 268.15735 575.3875 267.95422Q575.2 267.73547 574.85626 267.73547Q574.52814 267.73547 574.325 267.95422Q574.1375 268.15735 574.1375 268.53235L574.1375 268.96985ZM577.09064 273.3136Q577.09064 272.51672 577.60626 272.04797Q578.1219 271.5636 578.9344 271.5636Q579.7625 271.5636 580.27814 272.04797Q580.79376 272.51672 580.79376 273.34485L580.79376 273.76672Q580.79376 274.5636 580.29376 275.04797Q579.79376 275.53235 578.95 275.53235Q578.10626 275.53235 577.59064 275.04797Q577.09064 274.54797 577.09064 273.7511L577.09064 273.3136ZM578.21564 273.76672Q578.21564 274.09485 578.41876 274.32922Q578.6375 274.54797 578.95 274.54797Q579.66876 274.54797 579.66876 273.76672L579.66876 273.3136Q579.66876 272.96985 579.46564 272.7511Q579.2625 272.53235 578.9344 272.53235Q578.60626 272.53235 578.40314 272.7511Q578.21564 272.96985 578.21564 273.32922L578.21564 273.76672ZM575.2 274.76672L574.3719 274.32922L578.54376 267.65735L579.3719 268.09485L575.2 274.76672Z" fill-rule="nonzero"/><path stroke="#abadaf" stroke-width="1.0" stroke-linecap="butt" d="M581.45 261.90735L472.95 261.90735L438.98444 261.90735" fill-rule="nonzero"/><path fill="#828487" d="M440.98444 261.90735C440.98444 260.80276 440.089 259.90735 438.98444 259.90735C437.87985 259.90735 436.98444 260.80276 436.98444 261.90735C436.98444 263.0119 437.87985 263.90735 438.98444 263.90735C440.089 263.90735 440.98444 263.0119 440.98444 261.90735" fill-rule="nonzero"/><path fill="#ffffff" d="M498.6375 324.34064L496.02814 324.34064L496.02814 331.45L494.2625 331.45L494.2625 324.34064L491.6844 324.34064L491.6844 322.91876L498.6375 322.91876L498.6375 324.34064ZM502.0125 331.575Q500.6219 331.575 499.7469 330.71564Q498.8719 329.85626 498.8719 328.4344L498.8719 328.2625Q498.8719 327.3094 499.23126 326.5594Q499.60626 325.8094 500.27814 325.40314Q500.96564 324.9969 501.825 324.9969Q503.1375 324.9969 503.8719 325.825Q504.6219 326.6375 504.6219 328.1375L504.6219 328.825L500.59064 328.825Q500.66876 329.45 501.075 329.825Q501.4969 330.2 502.1375 330.2Q503.10626 330.2 503.65314 329.4969L504.4969 330.41876Q504.10626 330.96564 503.45 331.27814Q502.8094 331.575 502.0125 331.575ZM501.825 326.35626Q501.325 326.35626 501.0125 326.7Q500.7 327.04376 500.60626 327.66876L502.96564 327.66876L502.96564 327.54376Q502.95 326.98126 502.65314 326.66876Q502.3719 326.35626 501.825 326.35626ZM508.77814 331.45Q508.65314 331.21564 508.60626 330.8875Q507.9969 331.575 507.0125 331.575Q506.075 331.575 505.46564 331.02814Q504.85626 330.48126 504.85626 329.66876Q504.85626 328.65314 505.59064 328.1219Q506.34064 327.575 507.7625 327.575L508.52814 327.575L508.52814 327.21564Q508.52814 326.77814 508.3094 326.5125Q508.09064 326.2469 507.59064 326.2469Q507.16876 326.2469 506.91876 326.45Q506.6844 326.65314 506.6844 327.0125L504.9969 327.0125Q504.9969 326.46564 505.325 325.9969Q505.66876 325.52814 506.29376 325.2625Q506.91876 324.9969 507.6844 324.9969Q508.85626 324.9969 509.54376 325.59064Q510.23126 326.16876 510.23126 327.23126L510.23126 329.98126Q510.2469 330.8875 510.48126 331.35626L510.48126 331.45L508.77814 331.45ZM507.3719 330.27814Q507.7469 330.27814 508.0594 330.10626Q508.3875 329.9344 508.52814 329.65314L508.52814 328.5594L507.90314 328.5594Q506.6375 328.5594 506.54376 329.45L506.54376 329.54376Q506.54376 329.85626 506.7625 330.075Q506.98126 330.27814 507.3719 330.27814ZM512.6844 325.10626L512.7469 325.825Q513.41876 324.9969 514.5594 324.9969Q515.79376 324.9969 516.2469 325.96564Q516.91876 324.9969 518.15314 324.9969Q519.1844 324.9969 519.6844 325.60626Q520.1844 326.2 520.1844 327.40314L520.1844 331.45L518.4969 331.45L518.4969 327.40314Q518.4969 326.8719 518.27814 326.6219Q518.075 326.3719 517.52814 326.3719Q516.77814 326.3719 516.48126 327.09064L516.48126 331.45L514.79376 331.45L514.79376 327.41876Q514.79376 326.85626 514.575 326.6219Q514.35626 326.3719 513.84064 326.3719Q513.1219 326.3719 512.79376 326.96564L512.79376 331.45L511.10626 331.45L511.10626 325.10626L512.6844 325.10626ZM523.8719 329.15314Q523.8719 328.5594 524.2 328.0594Q524.52814 327.5594 525.41876 326.9344Q525.02814 326.4344 524.8094 325.98126Q524.60626 325.52814 524.60626 325.04376Q524.60626 324.04376 525.23126 323.41876Q525.85626 322.79376 526.91876 322.79376Q527.8875 322.79376 528.4969 323.3719Q529.10626 323.9344 529.10626 324.79376Q529.10626 325.8094 528.075 326.59064L527.41876 327.0594L528.8875 328.77814Q529.23126 328.09064 529.23126 327.27814L530.66876 327.27814Q530.66876 328.9344 529.90314 329.96564L531.1844 331.45L529.2625 331.45L528.825 330.95Q527.8875 331.575 526.65314 331.575Q525.3875 331.575 524.6219 330.90314Q523.8719 330.23126 523.8719 329.15314ZM526.73126 330.2Q527.34064 330.2 527.8875 329.8719L526.21564 327.91876L526.09064 328.0125Q525.5594 328.45 525.5594 329.0594Q525.5594 329.575 525.8875 329.8875Q526.21564 330.2 526.73126 330.2ZM526.1219 325.02814Q526.1219 325.46564 526.6375 326.1219L527.09064 325.825Q527.4344 325.60626 527.5594 325.40314Q527.7 325.1844 527.7 324.90314Q527.7 324.60626 527.48126 324.3875Q527.2625 324.16876 526.91876 324.16876Q526.5594 324.16876 526.34064 324.40314Q526.1219 324.6375 526.1219 325.02814ZM540.02814 329.6844L536.95 329.6844L536.35626 331.45L534.4969 331.45L537.66876 322.91876L539.29376 322.91876L542.4969 331.45L540.6219 331.45L540.02814 329.6844ZM537.41876 328.2625L539.5594 328.2625L538.48126 325.075L537.41876 328.2625ZM542.84064 328.23126Q542.84064 326.7469 543.4969 325.8719Q544.16876 324.9969 545.325 324.9969Q546.2469 324.9969 546.85626 325.6844L546.85626 322.45L548.54376 322.45L548.54376 331.45L547.02814 331.45L546.9344 330.77814Q546.3094 331.575 545.3094 331.575Q544.1844 331.575 543.5125 330.7Q542.84064 329.8094 542.84064 328.23126ZM544.52814 328.35626Q544.52814 329.2469 544.84064 329.73126Q545.15314 330.2 545.7469 330.2Q546.52814 330.2 546.85626 329.52814L546.85626 327.02814Q546.52814 326.3719 545.7625 326.3719Q544.52814 326.3719 544.52814 328.35626ZM552.48126 329.3875L553.65314 325.10626L555.41876 325.10626L553.27814 331.45L551.66876 331.45L549.52814 325.10626L551.29376 325.10626L552.48126 329.3875ZM557.8875 331.45L556.1844 331.45L556.1844 325.10626L557.8875 325.10626L557.8875 331.45ZM556.09064 323.46564Q556.09064 323.09064 556.34064 322.84064Q556.60626 322.59064 557.04376 322.59064Q557.46564 322.59064 557.71564 322.84064Q557.98126 323.09064 557.98126 323.46564Q557.98126 323.85626 557.71564 324.10626Q557.46564 324.34064 557.02814 324.34064Q556.60626 324.34064 556.34064 324.10626Q556.09064 323.85626 556.09064 323.46564ZM562.52814 329.7Q562.52814 329.3875 562.21564 329.21564Q561.91876 329.02814 561.2469 328.8875Q558.98126 328.41876 558.98126 326.96564Q558.98126 326.1219 559.66876 325.5594Q560.3719 324.9969 561.5125 324.9969Q562.71564 324.9969 563.4344 325.5594Q564.16876 326.1219 564.16876 327.04376L562.46564 327.04376Q562.46564 326.66876 562.23126 326.4344Q561.9969 326.2 561.4969 326.2Q561.075 326.2 560.84064 326.40314Q560.60626 326.59064 560.60626 326.8875Q560.60626 327.16876 560.8719 327.34064Q561.1375 327.5125 561.7625 327.6375Q562.40314 327.7625 562.84064 327.91876Q564.1844 328.41876 564.1844 329.6219Q564.1844 330.4969 563.4344 331.04376Q562.7 331.575 561.5125 331.575Q560.71564 331.575 560.09064 331.29376Q559.48126 330.9969 559.1219 330.5125Q558.77814 330.0125 558.77814 329.4344L560.3875 329.4344Q560.40314 329.8875 560.71564 330.1375Q561.02814 330.3719 561.54376 330.3719Q562.04376 330.3719 562.27814 330.1844Q562.52814 329.9969 562.52814 329.7ZM564.84064 328.21564Q564.84064 327.27814 565.2 326.54376Q565.5594 325.79376 566.2469 325.40314Q566.9344 324.9969 567.825 324.9969Q569.1219 324.9969 569.91876 325.77814Q570.73126 326.5594 570.825 327.90314L570.84064 328.34064Q570.84064 329.8094 570.02814 330.7Q569.21564 331.575 567.84064 331.575Q566.46564 331.575 565.65314 330.7Q564.84064 329.8094 564.84064 328.29376L564.84064 328.21564ZM566.52814 328.34064Q566.52814 329.2469 566.8719 329.73126Q567.21564 330.2 567.84064 330.2Q568.46564 330.2 568.8094 329.73126Q569.15314 329.2625 569.15314 328.21564Q569.15314 327.34064 568.8094 326.85626Q568.46564 326.35626 567.825 326.35626Q567.21564 326.35626 566.8719 326.84064Q566.52814 327.325 566.52814 328.34064ZM575.66876 326.7Q575.325 326.65314 575.0594 326.65314Q574.09064 326.65314 573.79376 327.29376L573.79376 331.45L572.10626 331.45L572.10626 325.10626L573.7 325.10626L573.7469 325.8719Q574.2625 324.9969 575.15314 324.9969Q575.4344 324.9969 575.6844 325.075L575.66876 326.7ZM579.52814 329.7Q579.52814 329.3875 579.21564 329.21564Q578.91876 329.02814 578.2469 328.8875Q575.98126 328.41876 575.98126 326.96564Q575.98126 326.1219 576.66876 325.5594Q577.3719 324.9969 578.5125 324.9969Q579.71564 324.9969 580.4344 325.5594Q581.16876 326.1219 581.16876 327.04376L579.46564 327.04376Q579.46564 326.66876 579.23126 326.4344Q578.9969 326.2 578.4969 326.2Q578.075 326.2 577.84064 326.40314Q577.60626 326.59064 577.60626 326.8875Q577.60626 327.16876 577.8719 327.34064Q578.1375 327.5125 578.7625 327.6375Q579.40314 327.7625 579.84064 327.91876Q581.1844 328.41876 581.1844 329.6219Q581.1844 330.4969 580.4344 331.04376Q579.7 331.575 578.5125 331.575Q577.71564 331.575 577.09064 331.29376Q576.48126 330.9969 576.1219 330.5125Q575.77814 330.0125 575.77814 329.4344L577.3875 329.4344Q577.40314 329.8875 577.71564 330.1375Q578.02814 330.3719 578.54376 330.3719Q579.04376 330.3719 579.27814 330.1844Q579.52814 329.9969 579.52814 329.7Z" fill-rule="nonzero"/><path fill="#828487" d="M553.1375 349.45L551.45 349.45L551.45 342.91876L549.4344 343.54376L549.4344 342.16876L552.96564 340.90314L553.1375 340.90314L553.1375 349.45ZM561.04376 346.23126L562.0125 346.23126L562.0125 347.60626L561.04376 347.60626L561.04376 349.45L559.34064 349.45L559.34064 347.60626L555.85626 347.60626L555.77814 346.54376L559.325 340.91876L561.04376 340.91876L561.04376 346.23126ZM557.46564 346.23126L559.34064 346.23126L559.34064 343.23126L559.23126 343.41876L557.46564 346.23126ZM563.1844 348.6219Q563.1844 348.21564 563.45 347.96564Q563.73126 347.71564 564.1375 347.71564Q564.5594 347.71564 564.825 347.96564Q565.10626 348.21564 565.10626 348.6219Q565.10626 349.0125 564.825 349.2625Q564.5594 349.5125 564.1375 349.5125Q563.73126 349.5125 563.45 349.2625Q563.1844 349.0125 563.1844 348.6219ZM571.77814 345.91876Q571.77814 347.6844 571.04376 348.6375Q570.3094 349.575 568.90314 349.575Q567.4969 349.575 566.7625 348.65314Q566.02814 347.73126 566.0125 346.0125L566.0125 344.4344Q566.0125 342.65314 566.7469 341.73126Q567.4969 340.79376 568.8875 340.79376Q570.27814 340.79376 571.0125 341.71564Q571.7625 342.6375 571.77814 344.35626L571.77814 345.91876ZM570.075 344.2Q570.075 343.1375 569.77814 342.65314Q569.4969 342.16876 568.8875 342.16876Q568.29376 342.16876 567.9969 342.6375Q567.71564 343.09064 567.7 344.075L567.7 346.1375Q567.7 347.1844 567.98126 347.7Q568.2625 348.2 568.90314 348.2Q569.5125 348.2 569.79376 347.71564Q570.075 347.23126 570.075 346.23126L570.075 344.2ZM573.0125 342.5594Q573.0125 341.77814 573.5125 341.29376Q574.02814 340.79376 574.85626 340.79376Q575.6844 340.79376 576.2 341.27814Q576.71564 341.7625 576.71564 342.59064L576.71564 343.0125Q576.71564 343.79376 576.2 344.27814Q575.6844 344.7625 574.8719 344.7625Q574.02814 344.7625 573.5125 344.27814Q573.0125 343.79376 573.0125 342.98126L573.0125 342.5594ZM574.1375 343.0125Q574.1375 343.35626 574.34064 343.575Q574.54376 343.79376 574.8719 343.79376Q575.2 343.79376 575.3875 343.575Q575.575 343.35626 575.575 342.9969L575.575 342.5594Q575.575 342.2 575.3875 341.9969Q575.2 341.77814 574.85626 341.77814Q574.52814 341.77814 574.325 341.9969Q574.1375 342.2 574.1375 342.575L574.1375 343.0125ZM577.09064 347.35626Q577.09064 346.5594 577.60626 346.09064Q578.1219 345.60626 578.9344 345.60626Q579.7625 345.60626 580.27814 346.09064Q580.79376 346.5594 580.79376 347.3875L580.79376 347.8094Q580.79376 348.60626 580.29376 349.09064Q579.79376 349.575 578.95 349.575Q578.10626 349.575 577.59064 349.09064Q577.09064 348.59064 577.09064 347.79376L577.09064 347.35626ZM578.21564 347.8094Q578.21564 348.1375 578.41876 348.3719Q578.6375 348.59064 578.95 348.59064Q579.66876 348.59064 579.66876 347.8094L579.66876 347.35626Q579.66876 347.0125 579.46564 346.79376Q579.2625 346.575 578.9344 346.575Q578.60626 346.575 578.40314 346.79376Q578.21564 347.0125 578.21564 347.3719L578.21564 347.8094ZM575.2 348.8094L574.3719 348.3719L578.54376 341.7L579.3719 342.1375L575.2 348.8094Z" fill-rule="nonzero"/><path stroke="#abadaf" stroke-width="1.0" stroke-linecap="butt" d="M581.45 335.95L472.95 335.95L339.44284 339.11972" fill-rule="nonzero"/><path fill="#828487" d="M341.44284 339.11972C341.44284 338.01514 340.5474 337.11972 339.44284 337.11972C338.33826 337.11972 337.44284 338.01514 337.44284 339.11972C337.44284 340.22427 338.33826 341.11972 339.44284 341.11972C340.5474 341.11972 341.44284 340.22427 341.44284 339.11972" fill-rule="nonzero"/></svg>