<?xml version="1.0" standalone="no"?>
<!DOCTYPE svg PUBLIC "-//W3C//DTD SVG 20010904//EN"
 "http://www.w3.org/TR/2001/REC-SVG-20010904/DTD/svg10.dtd">
<svg version="1.0" xmlns="http://www.w3.org/2000/svg"
 width="3375.000000pt" height="3375.000000pt" viewBox="0 0 3375.000000 3375.000000"
 preserveAspectRatio="xMidYMid meet">

<g transform="translate(0.000000,3375.000000) scale(0.100000,-0.100000)"
fill="#000000" stroke="none">
<path d="M5 33738 c-3 -7 -4 -7600 -3 -16873 l3 -16860 16870 0 16870 0 0
16870 0 16870 -16868 3 c-13489 2 -16869 0 -16872 -10z m16805 -1539 c69 -5
199 -14 290 -19 321 -18 865 -77 1200 -131 36 -5 108 -16 160 -24 110 -16 326
-54 485 -85 61 -12 142 -28 180 -34 39 -7 88 -18 110 -24 22 -6 96 -22 165
-37 69 -15 148 -33 175 -40 28 -7 82 -21 120 -30 39 -9 96 -23 128 -31 31 -8
83 -20 115 -28 31 -7 91 -23 132 -35 41 -12 100 -29 130 -37 176 -49 562 -167
620 -190 19 -7 51 -18 70 -23 19 -5 94 -30 165 -56 72 -25 148 -52 170 -60 22
-7 72 -25 110 -40 39 -14 81 -30 95 -34 33 -11 203 -77 260 -101 25 -10 74
-30 110 -44 36 -14 88 -34 115 -46 28 -12 59 -25 70 -30 11 -4 40 -17 65 -28
25 -11 99 -44 165 -72 66 -29 161 -72 210 -95 50 -23 124 -57 165 -76 164 -74
819 -411 855 -439 6 -4 37 -22 70 -39 33 -18 67 -36 75 -41 12 -7 172 -100
232 -135 24 -14 211 -126 252 -150 243 -146 751 -489 993 -669 23 -17 67 -49
98 -71 31 -22 103 -76 160 -120 56 -44 144 -113 196 -153 273 -212 599 -491
934 -796 247 -226 772 -759 995 -1011 19 -22 76 -85 125 -140 50 -55 119 -136
155 -179 154 -185 245 -296 308 -376 36 -47 69 -87 72 -90 8 -6 306 -403 370
-491 43 -60 67 -94 173 -244 62 -89 325 -485 361 -545 15 -25 43 -70 62 -100
19 -30 55 -89 80 -130 24 -41 49 -82 54 -90 53 -86 290 -497 290 -504 0 -2 17
-35 39 -73 74 -132 266 -508 349 -683 91 -193 162 -349 162 -355 0 -2 15 -37
34 -77 19 -40 55 -122 80 -183 26 -60 56 -128 66 -151 11 -23 20 -48 20 -57 0
-9 4 -18 10 -22 5 -3 14 -20 19 -38 13 -44 99 -268 111 -289 6 -10 10 -23 10
-29 0 -6 7 -25 15 -42 15 -34 34 -85 65 -177 10 -30 37 -107 60 -170 23 -63
46 -131 51 -150 6 -19 28 -87 50 -151 21 -65 39 -122 39 -129 0 -7 7 -26 15
-43 8 -18 19 -50 24 -72 6 -22 20 -71 31 -110 26 -84 51 -175 75 -270 10 -38
24 -85 31 -103 8 -18 14 -44 14 -57 0 -13 9 -47 20 -75 11 -28 20 -64 20 -81
0 -17 5 -39 10 -49 6 -10 17 -52 24 -92 8 -40 22 -93 30 -117 9 -24 16 -64 16
-90 0 -26 7 -56 16 -69 10 -15 14 -39 12 -74 l-3 -53 -19 90 c-10 50 -25 104
-33 120 -8 17 -17 53 -20 80 -3 28 -12 62 -19 77 -8 15 -14 35 -14 45 0 10 -8
47 -19 83 -11 36 -31 108 -46 160 -15 52 -31 109 -37 125 -5 17 -16 53 -23 80
-7 28 -18 64 -24 80 -6 17 -31 98 -57 180 -25 83 -51 161 -56 175 -6 14 -26
70 -44 125 -18 55 -45 132 -59 170 -15 39 -33 88 -40 110 -38 110 -121 325
-151 392 -8 17 -14 36 -14 41 0 6 -6 23 -14 39 -8 15 -24 53 -37 83 -12 30
-30 73 -40 95 -10 22 -29 69 -44 105 -15 36 -40 94 -57 130 -17 36 -45 99 -63
141 -18 42 -38 85 -43 95 -6 10 -32 64 -58 119 -84 180 -286 576 -358 703 -20
35 -36 66 -36 68 0 3 -55 100 -110 194 -5 8 -32 54 -59 102 -28 47 -57 97 -64
110 -6 12 -50 85 -97 161 -47 75 -94 152 -104 170 -54 89 -365 553 -471 702
-348 486 -772 1011 -1119 1385 -495 533 -989 1008 -1436 1380 -30 25 -84 70
-120 101 -36 30 -108 88 -160 129 -52 40 -97 76 -100 80 -10 13 -316 243 -517
389 -85 62 -222 158 -357 249 -77 52 -151 102 -165 112 -15 10 -53 35 -86 56
-33 20 -96 61 -140 89 -44 29 -135 85 -203 126 -67 41 -135 82 -150 91 -15 9
-38 23 -52 31 -14 8 -79 45 -145 84 -66 38 -127 73 -135 76 -8 4 -22 11 -30
17 -99 63 -763 404 -1000 513 -30 14 -91 41 -135 62 -44 20 -127 57 -185 82
-58 24 -118 50 -135 58 -128 57 -369 154 -570 229 -38 15 -85 33 -103 41 -18
8 -37 15 -43 15 -6 0 -25 6 -42 14 -51 21 -140 54 -167 61 -14 3 -34 10 -45
15 -11 5 -83 30 -160 55 -77 25 -153 50 -170 56 -16 6 -50 17 -75 24 -25 7
-58 18 -75 23 -65 22 -254 79 -380 114 -38 11 -92 26 -120 34 -27 8 -68 18
-90 23 -22 6 -74 19 -115 30 -97 27 -268 69 -345 86 -33 8 -103 23 -155 35
-52 12 -106 24 -120 26 -25 5 -145 30 -275 58 -38 8 -101 20 -140 26 -38 6
-87 15 -107 21 -20 5 -67 13 -105 18 -37 5 -111 16 -163 25 -188 31 -276 45
-360 55 -47 6 -116 15 -155 20 -283 39 -736 81 -1100 103 -283 17 -1456 17
-1740 0 -538 -33 -1045 -87 -1550 -167 -44 -7 -116 -18 -160 -24 -44 -7 -109
-19 -145 -26 -36 -8 -94 -19 -130 -25 -36 -6 -96 -17 -135 -25 -38 -8 -115
-23 -170 -35 -55 -11 -120 -25 -145 -31 -25 -6 -74 -17 -110 -25 -117 -23
-193 -41 -375 -89 -99 -25 -198 -50 -220 -56 -22 -5 -62 -15 -90 -23 -27 -8
-81 -23 -120 -34 -133 -38 -220 -64 -275 -82 -30 -10 -89 -28 -130 -40 -41
-12 -91 -27 -110 -35 -19 -7 -71 -24 -115 -38 -150 -49 -301 -101 -445 -154
-52 -19 -117 -43 -145 -53 -27 -10 -61 -22 -75 -28 -14 -6 -68 -27 -120 -48
-52 -20 -114 -45 -137 -55 -23 -11 -46 -19 -50 -19 -4 0 -51 -18 -103 -41 -92
-41 -164 -72 -205 -89 -114 -49 -191 -83 -245 -108 -36 -17 -101 -47 -145 -67
-260 -122 -745 -370 -960 -492 -22 -12 -53 -29 -70 -38 -16 -9 -39 -21 -50
-28 -18 -11 -156 -91 -215 -124 -14 -8 -37 -22 -52 -31 -25 -16 -270 -166
-306 -187 -221 -132 -732 -486 -1061 -735 -588 -445 -987 -790 -1510 -1305
-433 -426 -968 -1021 -1229 -1367 -28 -37 -72 -94 -99 -126 -50 -61 -278 -369
-355 -479 -24 -34 -63 -91 -87 -125 -64 -91 -251 -368 -251 -372 0 -2 -28 -47
-62 -100 -111 -169 -360 -578 -379 -621 -5 -11 -19 -36 -31 -55 -11 -19 -48
-84 -81 -145 -33 -60 -71 -130 -85 -155 -46 -85 -277 -545 -334 -665 -101
-216 -139 -299 -164 -360 -14 -33 -31 -73 -39 -90 -7 -16 -26 -59 -40 -95 -15
-36 -35 -83 -45 -105 -18 -41 -73 -181 -117 -295 -14 -36 -31 -78 -37 -95 -20
-47 -50 -128 -101 -275 -25 -74 -53 -150 -61 -168 -8 -18 -14 -40 -14 -50 -1
-9 -9 -35 -20 -57 -11 -22 -19 -46 -20 -54 0 -7 -17 -65 -39 -130 -55 -166
-90 -284 -145 -481 -15 -52 -32 -111 -38 -130 -6 -19 -18 -62 -25 -95 -28
-117 -77 -316 -98 -395 -8 -30 -19 -77 -24 -105 -5 -27 -13 -70 -19 -95 -22
-88 -44 -195 -52 -244 -4 -28 -17 -96 -28 -151 -11 -55 -28 -145 -37 -200 -10
-55 -26 -147 -36 -204 -10 -56 -19 -118 -19 -136 0 -19 -6 -64 -14 -102 -8
-37 -19 -117 -26 -178 -6 -60 -16 -139 -21 -175 -6 -36 -17 -132 -24 -215 -7
-82 -18 -199 -24 -260 -31 -321 -41 -627 -41 -1210 0 -608 12 -943 45 -1280 8
-82 20 -204 26 -270 5 -66 12 -127 14 -135 3 -8 11 -76 20 -150 17 -146 35
-277 66 -465 42 -259 52 -311 104 -575 7 -36 20 -101 28 -145 9 -44 20 -92 25
-105 5 -14 12 -46 16 -73 4 -26 23 -109 43 -185 19 -75 39 -155 43 -177 13
-58 55 -216 86 -320 14 -49 30 -106 33 -125 4 -19 14 -55 23 -80 9 -25 26 -79
38 -120 38 -129 61 -203 80 -255 10 -27 38 -113 64 -190 25 -77 57 -171 72
-210 14 -38 32 -88 39 -110 35 -103 158 -422 176 -457 4 -9 25 -59 45 -110 20
-51 39 -97 43 -103 4 -5 20 -44 36 -85 16 -41 32 -79 36 -85 3 -5 25 -53 49
-105 136 -307 300 -639 473 -960 94 -175 100 -186 167 -300 45 -78 111 -192
127 -220 38 -67 179 -296 248 -403 848 -1317 1822 -2421 3039 -3442 187 -158
662 -527 801 -623 33 -23 89 -63 125 -88 479 -346 1164 -767 1725 -1059 210
-110 547 -276 675 -333 43 -19 80 -36 220 -100 36 -16 110 -48 165 -71 55 -23
107 -46 115 -50 9 -5 70 -30 135 -56 66 -26 139 -56 162 -66 23 -11 48 -19 55
-19 8 0 18 -4 24 -10 5 -5 30 -16 54 -24 25 -8 77 -27 115 -41 217 -84 490
-178 710 -246 39 -12 86 -27 105 -35 45 -16 136 -44 175 -54 17 -4 77 -22 135
-40 58 -17 121 -35 140 -40 19 -4 69 -17 110 -28 169 -46 280 -75 370 -97 52
-12 127 -31 165 -40 39 -9 92 -21 119 -26 26 -4 62 -12 80 -18 17 -5 49 -12
71 -15 22 -4 67 -13 100 -21 33 -8 123 -26 200 -40 77 -15 172 -33 210 -40 39
-8 100 -19 138 -25 37 -5 97 -15 135 -20 37 -6 108 -17 157 -25 50 -8 126 -19
170 -25 44 -5 114 -14 155 -19 266 -36 670 -76 1040 -103 231 -16 1523 -23
1710 -9 80 7 219 16 310 21 250 14 686 58 945 95 55 8 125 17 155 20 30 3 93
12 140 20 47 8 115 19 153 25 175 26 207 32 272 45 39 7 133 25 210 40 77 14
167 32 200 40 33 8 76 17 95 20 52 9 168 35 225 50 28 8 68 17 90 21 22 4 101
22 175 41 74 19 154 39 178 44 23 5 51 13 61 19 11 5 28 10 39 10 17 0 78 16
202 54 25 8 88 26 140 41 52 15 113 33 135 40 22 7 81 25 130 40 50 15 99 30
110 35 11 4 90 31 175 58 85 28 187 63 225 77 39 15 84 30 100 35 17 5 84 30
150 55 66 26 138 53 160 60 42 14 99 37 152 61 17 8 38 14 46 14 9 0 18 4 22
9 3 5 22 15 43 22 20 6 100 38 177 71 178 75 207 88 350 153 33 15 89 40 125
57 189 85 731 356 870 435 19 11 62 35 95 53 80 44 196 109 215 120 8 5 44 26
80 46 90 52 344 205 407 245 29 19 78 50 109 69 124 76 571 377 727 491 146
106 233 170 242 177 6 4 48 37 95 72 92 69 422 330 430 340 3 3 43 37 90 75
313 257 630 548 1030 945 241 239 453 467 760 820 239 274 646 798 895 1155
102 146 364 541 388 585 4 8 45 76 92 150 46 74 143 239 215 365 72 127 135
237 140 245 5 8 28 51 51 95 23 44 45 85 49 90 11 14 267 527 325 650 26 55
56 118 66 141 10 22 19 43 19 47 0 3 16 41 36 84 36 77 51 111 92 208 12 28
42 98 67 156 25 59 45 111 45 117 0 6 7 23 15 39 13 26 24 55 87 223 11 30 26
69 34 85 7 17 16 44 20 60 4 17 10 35 14 40 10 13 57 147 71 200 5 21 14 44
18 50 5 5 12 26 16 45 4 19 13 44 19 55 7 11 16 36 20 55 3 19 15 58 26 85 28
73 50 144 60 193 5 24 16 53 25 65 8 12 15 38 15 58 0 20 6 42 14 49 8 6 17
24 19 38 3 23 4 22 6 -7 1 -31 -15 -93 -56 -221 -8 -25 -18 -67 -23 -93 -5
-27 -13 -54 -18 -60 -6 -7 -13 -28 -16 -47 -4 -19 -13 -51 -20 -70 -7 -19 -26
-75 -41 -125 -15 -49 -33 -106 -40 -125 -39 -112 -47 -139 -56 -175 -6 -21
-14 -44 -18 -50 -5 -5 -12 -21 -15 -35 -10 -36 -85 -247 -106 -300 -10 -25
-25 -63 -33 -85 -51 -134 -142 -366 -158 -402 -11 -23 -19 -44 -19 -48 0 -3
-10 -27 -21 -53 -12 -26 -29 -65 -39 -87 -91 -210 -119 -273 -160 -360 -26
-55 -67 -143 -91 -195 -66 -142 -256 -518 -336 -665 -39 -71 -85 -156 -102
-188 -17 -31 -42 -75 -56 -97 -14 -22 -25 -43 -25 -48 0 -4 -16 -31 -35 -61
-19 -29 -35 -55 -35 -57 0 -5 -154 -263 -243 -406 -71 -115 -340 -522 -431
-653 -31 -44 -64 -91 -73 -105 -176 -255 -566 -756 -838 -1076 -405 -478 -957
-1047 -1395 -1439 -36 -32 -83 -75 -105 -95 -22 -20 -92 -80 -155 -135 -63
-54 -140 -120 -171 -147 -216 -186 -719 -574 -989 -763 -25 -17 -76 -53 -115
-80 -201 -141 -547 -367 -755 -493 -129 -79 -242 -147 -250 -152 -36 -22 -256
-147 -270 -154 -8 -3 -33 -17 -55 -30 -183 -109 -769 -405 -1095 -553 -223
-102 -583 -254 -730 -308 -19 -8 -69 -27 -110 -44 -41 -17 -79 -31 -83 -31 -5
0 -23 -7 -40 -15 -18 -8 -52 -21 -77 -29 -25 -8 -76 -26 -115 -41 -38 -14
-108 -39 -155 -55 -47 -16 -97 -33 -110 -38 -14 -6 -92 -31 -175 -57 -82 -26
-165 -53 -183 -61 -18 -8 -39 -14 -47 -14 -8 0 -41 -8 -72 -19 -32 -10 -101
-31 -153 -46 -52 -15 -113 -33 -135 -41 -22 -7 -58 -16 -80 -20 -22 -4 -47
-10 -56 -15 -9 -5 -45 -15 -80 -23 -60 -13 -283 -68 -409 -100 -30 -8 -100
-24 -155 -36 -55 -12 -127 -28 -160 -36 -93 -21 -262 -55 -345 -69 -95 -16
-184 -32 -280 -50 -41 -8 -100 -17 -130 -21 -30 -3 -71 -10 -90 -14 -19 -5
-91 -16 -160 -25 -69 -8 -170 -22 -225 -30 -165 -24 -352 -45 -494 -56 -74 -5
-137 -12 -141 -14 -4 -2 -101 -9 -216 -15 -138 -7 -243 -18 -309 -33 -97 -20
-122 -21 -825 -21 -707 0 -728 1 -825 22 -68 15 -166 25 -307 32 -114 6 -213
12 -220 15 -7 3 -89 12 -183 20 -220 19 -330 32 -490 56 -71 10 -170 24 -219
30 -49 5 -92 12 -96 14 -3 2 -44 8 -90 15 -47 6 -119 17 -160 25 -41 8 -104
19 -140 25 -181 33 -224 41 -335 64 -66 13 -140 29 -165 35 -25 5 -90 19 -145
31 -55 12 -125 28 -155 36 -104 26 -185 46 -265 66 -44 10 -105 25 -135 33
-30 7 -68 17 -85 23 -16 5 -68 19 -115 32 -76 20 -135 37 -290 84 -25 7 -79
24 -120 36 -41 12 -91 28 -110 35 -19 7 -111 38 -205 68 -93 31 -186 61 -205
68 -123 43 -362 131 -405 148 -11 5 -92 37 -180 71 -88 34 -178 70 -200 80
-22 10 -89 39 -150 64 -130 55 -155 66 -216 95 -25 11 -49 21 -52 21 -3 0 -63
27 -133 60 -71 34 -165 78 -209 98 -165 77 -664 333 -768 394 -28 16 -61 34
-72 39 -11 5 -42 23 -70 39 -27 16 -75 43 -105 60 -30 17 -73 42 -95 55 -22
13 -45 27 -52 30 -11 6 -147 88 -267 160 -144 88 -570 367 -711 466 -33 23
-89 62 -125 87 -36 25 -81 57 -100 72 -19 15 -75 57 -125 93 -188 139 -264
197 -484 372 -194 155 -304 246 -495 411 -51 44 -174 155 -311 279 -273 248
-771 750 -1005 1015 -51 58 -114 128 -139 155 -220 237 -671 805 -960 1207
-98 138 -225 322 -333 486 -68 103 -295 461 -318 502 -5 8 -35 60 -68 115 -72
121 -256 444 -265 465 -4 8 -27 51 -52 95 -64 114 -455 902 -455 917 0 5 -39
93 -95 213 -19 42 -71 164 -111 265 -19 47 -39 94 -44 105 -32 69 -140 352
-140 366 0 8 -6 23 -14 34 -7 11 -18 36 -24 55 -11 36 -20 60 -97 275 -26 72
-50 144 -54 160 -5 17 -24 77 -43 135 -19 58 -45 139 -58 180 -12 41 -29 95
-38 119 -8 24 -18 58 -22 75 -4 17 -23 85 -42 151 -19 66 -45 158 -57 205 -13
47 -31 114 -42 149 -10 35 -19 71 -19 79 0 9 -7 38 -15 66 -31 107 -63 243
-98 424 -8 37 -19 83 -24 102 -6 19 -14 55 -17 80 -4 25 -13 74 -21 110 -35
164 -99 534 -126 725 -5 39 -18 133 -29 210 -11 77 -27 201 -36 275 -15 124
-23 205 -53 555 -29 327 -36 570 -36 1230 0 662 7 915 36 1230 6 66 17 188 24
270 7 83 23 229 34 325 19 160 27 219 61 450 6 41 17 119 25 172 7 54 16 101
19 106 3 5 10 49 16 98 6 49 17 116 25 149 8 33 26 123 40 200 15 77 33 167
40 200 8 33 24 105 36 160 12 55 37 163 56 240 19 77 39 160 44 185 4 25 15
68 23 95 24 81 53 184 76 270 25 95 56 198 81 278 11 31 19 64 19 72 0 8 6 29
14 47 8 18 35 101 61 183 26 83 51 161 57 175 5 14 25 70 44 125 18 55 45 132
59 170 14 39 32 88 40 110 7 22 23 65 35 95 12 30 28 73 36 95 27 75 85 220
105 261 10 23 19 46 19 52 0 6 7 23 15 39 8 15 26 57 41 93 14 36 32 79 39 95
18 42 47 109 80 185 78 182 305 652 418 866 127 240 207 387 264 481 24 40 43
75 43 78 0 3 15 29 33 58 18 29 57 93 85 142 29 50 58 99 65 109 11 18 44 71
141 228 50 79 221 343 248 382 11 15 50 72 87 125 118 172 314 443 434 601 95
124 437 552 452 565 7 6 43 48 82 95 38 47 132 155 208 240 531 598 1200 1239
1780 1706 106 86 422 334 471 371 150 112 379 276 498 358 81 55 154 106 164
113 70 52 484 316 647 412 77 46 184 109 237 142 54 32 99 58 101 58 3 0 49
25 103 56 94 53 176 98 365 198 165 87 485 245 689 339 30 14 90 41 133 61 42
20 80 36 83 36 3 0 31 12 62 26 66 31 116 52 192 84 30 12 82 34 115 48 94 39
117 49 170 70 95 38 188 73 325 124 30 11 71 26 90 34 19 7 96 33 170 59 74
26 151 53 170 60 19 8 46 17 60 20 14 3 41 12 60 20 46 17 312 99 500 154 128
37 172 49 275 76 55 15 129 35 164 46 35 10 75 19 87 19 13 0 41 6 61 14 21 8
56 17 78 21 22 3 60 12 85 19 25 8 99 26 165 40 66 14 152 33 190 41 129 28
220 46 277 55 31 4 87 15 125 23 70 16 203 39 353 62 47 7 117 18 155 23 232
36 354 53 386 52 20 0 61 5 90 10 84 16 545 60 739 70 96 5 191 12 210 16 108
20 1392 22 1630 3z m1816 -3866 c9 -21 22 -56 29 -78 22 -63 51 -144 85 -230
17 -44 35 -93 41 -110 5 -16 13 -39 19 -50 5 -11 16 -38 23 -60 54 -154 244
-667 286 -772 24 -59 20 -78 -16 -88 -14 -3 -151 -5 -303 -4 -153 1 -283 -2
-289 -5 -16 -11 -15 -1018 1 -1034 9 -9 138 -12 519 -12 l506 0 32 -75 c17
-41 31 -80 31 -88 0 -7 6 -21 13 -32 8 -11 19 -38 25 -60 5 -22 25 -76 42
-120 17 -44 35 -93 41 -110 5 -16 13 -39 19 -50 5 -11 32 -83 60 -160 28 -77
60 -162 71 -190 10 -27 74 -198 141 -380 67 -181 132 -359 145 -395 14 -36 29
-78 35 -95 14 -43 49 -135 63 -170 7 -16 18 -48 25 -70 7 -22 16 -44 20 -50 4
-5 13 -26 18 -45 11 -36 38 -110 86 -235 15 -38 32 -85 38 -104 5 -19 16 -44
23 -55 7 -12 16 -37 20 -56 4 -19 11 -39 15 -45 4 -5 15 -35 25 -65 10 -30 21
-59 25 -65 4 -5 13 -26 18 -45 6 -19 22 -64 35 -100 14 -36 44 -117 67 -180
83 -226 98 -267 149 -404 75 -201 81 -217 96 -261 8 -22 28 -76 45 -120 17
-44 37 -98 45 -120 7 -22 24 -69 38 -105 13 -36 41 -110 61 -165 20 -55 41
-109 46 -120 6 -11 15 -33 20 -50 5 -16 21 -61 35 -100 15 -38 35 -93 45 -121
28 -79 49 -114 68 -114 9 0 553 0 1207 0 1020 0 1193 -2 1210 -14 19 -14 20
-30 23 -534 2 -465 1 -522 -13 -536 -15 -14 -114 -16 -1013 -16 -574 0 -1003
-4 -1011 -9 -12 -8 -11 -18 8 -68 12 -32 49 -132 83 -223 33 -91 71 -194 85
-230 13 -36 30 -83 38 -105 37 -108 121 -328 146 -383 10 -23 19 -49 19 -57 0
-8 7 -29 15 -47 14 -32 38 -97 92 -243 14 -38 29 -77 33 -86 5 -9 24 -60 44
-115 19 -54 47 -130 61 -169 15 -38 33 -88 40 -110 8 -22 28 -76 45 -120 17
-44 35 -93 41 -110 5 -16 13 -39 19 -50 5 -11 37 -94 69 -185 68 -191 212
-582 241 -655 11 -28 20 -54 20 -59 0 -5 8 -27 19 -50 29 -64 71 -175 71 -189
0 -7 9 -29 20 -50 22 -41 25 -63 10 -72 -6 -4 -171 -6 -367 -5 -321 1 -358 -1
-374 -16 -18 -16 -19 -37 -19 -308 0 -251 2 -295 16 -314 l16 -23 484 2 c548
2 511 8 538 -80 8 -25 29 -82 46 -126 17 -44 36 -96 42 -115 5 -19 14 -39 18
-45 4 -5 13 -26 18 -45 6 -19 34 -96 62 -170 28 -74 57 -153 64 -175 14 -40
104 -287 130 -355 7 -19 23 -62 36 -95 12 -33 28 -76 35 -95 15 -36 53 -139
84 -225 55 -150 75 -204 91 -245 9 -25 23 -61 30 -80 6 -19 22 -62 35 -95 12
-33 37 -100 54 -150 18 -49 37 -98 42 -109 6 -10 17 -37 24 -60 7 -22 27 -77
45 -121 17 -44 37 -98 45 -120 7 -22 20 -58 29 -80 17 -47 47 -127 146 -395
40 -107 83 -224 97 -260 13 -36 37 -101 53 -145 23 -67 122 -333 227 -615 14
-36 31 -84 38 -106 7 -23 18 -50 23 -60 17 -33 62 -154 62 -167 0 -7 9 -29 20
-50 11 -20 20 -44 20 -52 0 -8 8 -34 19 -57 10 -24 24 -59 31 -78 7 -19 23
-64 37 -100 14 -36 31 -83 38 -105 8 -22 28 -76 45 -120 17 -44 37 -98 45
-120 7 -22 23 -65 35 -95 12 -30 41 -109 65 -175 24 -66 99 -271 168 -455 68
-184 135 -363 147 -397 37 -104 -56 -93 899 -100 l841 -6 6 -32 c3 -17 4 -49
2 -70 l-3 -40 -810 -1 c-445 0 -816 -1 -824 -2 -17 -2 -12 -24 29 -127 17 -44
36 -96 42 -115 5 -19 14 -39 18 -45 4 -5 13 -26 18 -45 6 -19 25 -71 42 -115
17 -44 37 -98 45 -120 16 -48 45 -126 79 -215 13 -36 30 -81 36 -100 7 -19 21
-53 31 -76 11 -23 19 -47 19 -55 1 -8 9 -32 20 -54 11 -22 19 -46 20 -53 0 -7
9 -30 20 -52 11 -22 20 -48 20 -58 0 -10 -53 -95 -117 -188 -65 -93 -136 -195
-158 -228 -22 -32 -50 -69 -62 -82 l-22 -24 -2228 0 c-2467 0 -2264 -6 -2278
66 -3 20 -11 44 -16 53 -5 9 -25 63 -44 121 -19 58 -64 191 -100 295 -37 105
-93 267 -125 361 -32 94 -63 180 -68 191 -8 15 -8 25 1 37 11 15 56 17 507 16
404 0 499 2 514 13 18 13 19 31 18 258 0 221 -2 244 -18 256 -15 11 -137 13
-599 13 -319 0 -588 0 -597 0 -20 0 -44 41 -69 120 -31 97 -99 294 -109 315
-5 11 -14 36 -19 55 -6 19 -24 73 -41 120 -17 47 -35 99 -39 115 -4 17 -13 41
-20 54 -7 12 -18 44 -26 69 -7 26 -34 106 -60 177 -25 72 -52 150 -60 175 -7
25 -34 104 -60 175 -25 72 -61 175 -80 230 -138 413 -237 691 -251 706 -17 18
-127 19 -3726 19 l-3708 0 -20 -32 c-11 -18 -29 -60 -40 -93 -10 -33 -31 -91
-45 -130 -14 -38 -32 -90 -40 -115 -8 -25 -28 -83 -45 -130 -17 -47 -37 -103
-45 -125 -7 -22 -50 -143 -95 -270 -45 -126 -94 -268 -110 -315 -16 -47 -50
-143 -75 -215 -26 -71 -53 -150 -61 -175 -8 -25 -18 -54 -24 -65 -12 -27 -48
-130 -62 -180 -6 -22 -15 -46 -21 -52 -5 -7 -8 -14 -6 -15 2 -2 288 -5 634 -8
l630 -5 0 -245 0 -245 -717 -5 c-394 -3 -718 -7 -721 -10 -7 -7 -37 -78 -52
-125 -7 -22 -25 -71 -40 -110 -14 -38 -32 -90 -40 -115 -8 -25 -26 -76 -40
-115 -14 -38 -41 -115 -60 -170 -19 -55 -48 -138 -64 -185 -17 -47 -43 -119
-57 -160 -197 -570 -200 -577 -225 -591 -11 -5 -872 -9 -2236 -9 -1931 0
-2221 2 -2239 15 -12 8 -44 47 -71 87 -27 40 -65 96 -84 123 -19 28 -62 88
-94 135 -32 47 -67 96 -77 109 -25 32 -23 70 7 137 14 31 25 62 25 68 0 6 7
24 15 39 8 15 19 42 24 60 5 18 24 68 41 112 17 44 38 98 45 120 8 22 26 72
40 110 15 39 35 93 45 120 10 28 28 75 40 105 12 30 28 73 35 95 8 22 28 76
45 120 17 44 39 103 49 130 48 132 217 589 268 725 14 36 31 84 38 106 7 23
18 50 23 60 9 17 29 70 85 224 10 30 27 75 37 100 10 25 27 70 38 100 26 72
98 262 122 325 11 28 20 55 20 60 0 6 6 22 14 36 7 15 22 51 31 80 10 30 21
59 25 64 4 6 13 26 18 45 6 19 23 67 37 105 15 39 33 88 40 110 7 22 19 56 28
75 17 41 20 49 171 460 64 173 125 339 136 368 10 29 29 78 40 110 12 31 30
77 40 102 17 42 45 118 93 250 10 30 27 75 37 100 45 115 60 156 60 164 0 4 7
22 15 39 8 18 21 50 28 72 8 22 21 55 28 72 9 22 10 36 3 43 -13 13 -891 30
-1614 30 -300 0 -663 3 -807 7 l-263 6 0 75 0 75 623 -6 c342 -4 954 -12 1360
-18 525 -8 745 -9 762 -1 14 7 26 23 30 44 4 18 11 38 15 43 4 6 14 30 23 55
9 25 30 81 47 125 17 44 35 94 40 110 5 17 21 62 36 100 31 82 56 149 112 300
23 61 66 178 97 260 31 83 61 166 67 185 5 19 14 40 18 45 4 6 13 26 19 45 12
39 52 151 68 190 6 14 19 50 30 80 60 165 77 209 94 248 10 23 19 48 19 55 0
6 7 25 15 40 8 15 19 42 24 60 5 18 24 68 41 112 17 44 37 98 45 120 7 22 26
72 40 110 14 39 35 93 45 120 10 28 28 75 40 105 12 30 28 73 35 95 8 22 28
76 45 120 17 44 36 96 42 115 5 19 14 40 18 45 4 6 12 26 18 45 6 19 39 114
75 210 51 136 70 178 88 187 19 10 229 13 944 13 859 -1 921 1 932 17 16 21
18 355 3 384 -10 19 -30 19 -850 19 -461 0 -845 3 -854 6 -20 8 -21 43 -2 81
8 15 27 62 42 103 45 127 62 172 89 245 52 139 68 181 80 210 7 17 22 55 33
85 26 72 81 220 91 245 9 21 18 46 104 280 31 83 112 303 181 490 69 187 134
363 145 390 10 28 27 73 37 100 l20 50 598 3 c422 1 603 5 613 13 16 14 19
344 3 354 -5 3 -241 7 -524 8 -396 2 -518 5 -527 14 -10 10 -8 25 10 75 13 35
30 81 38 103 7 22 18 49 23 60 6 11 14 34 19 50 6 17 24 66 41 110 18 44 38
98 45 120 8 22 28 76 45 120 17 44 36 96 42 115 5 19 14 40 18 45 4 6 13 26
18 45 6 19 34 96 62 170 28 74 57 153 65 175 7 22 23 65 35 95 20 52 85 227
117 315 26 72 203 549 217 585 8 19 26 69 41 110 60 162 69 186 87 226 10 22
18 46 18 52 0 6 9 31 19 54 10 24 28 69 40 101 11 31 29 81 39 110 11 28 32
86 47 127 15 41 33 89 41 105 13 29 31 77 59 160 8 22 28 76 45 120 17 44 35
91 40 105 4 14 22 61 38 105 16 44 78 211 136 370 130 350 147 396 159 412 7
10 284 13 1282 15 700 2 1277 7 1282 11 4 5 9 242 11 528 2 509 2 519 -18 539
-20 20 -29 20 -1070 20 -951 0 -1051 2 -1057 16 -6 16 -1 36 40 144 14 36 43
115 65 175 23 61 57 153 77 205 20 52 72 194 117 315 119 323 120 327 181 490
31 83 74 200 97 260 22 61 44 119 49 130 5 11 20 52 34 90 50 135 87 236 126
335 11 31 21 59 21 63 0 5 11 33 25 63 14 30 25 60 25 67 1 7 9 30 20 52 11
22 19 44 20 50 0 5 9 33 20 62 24 61 56 150 64 176 5 16 135 17 2546 17 l2540
0 16 -37z m12428 -8294 c10 -50 8 -95 -4 -83 -15 15 -25 114 -13 114 6 0 13
-14 17 -31z m35 -214 c1 -23 -2 -26 -9 -15 -5 8 -9 31 -9 50 0 29 2 31 9 15 5
-11 9 -33 9 -50z m-132 -6517 c-3 -8 -6 -5 -6 6 -1 11 2 17 5 13 3 -3 4 -12 1
-19z m-36 -161 c-13 -13 -14 5 -3 43 l7 25 3 -29 c2 -16 -1 -33 -7 -39z m-30
-134 c-8 -15 -10 -10 -11 23 0 22 3 44 8 48 11 12 14 -52 3 -71z m-37 -128
c-21 -46 -25 -41 -13 15 14 66 22 80 27 48 2 -15 -4 -43 -14 -63z"/>
<path d="M16026 22463 c-9 -27 -29 -86 -46 -133 -17 -47 -35 -98 -40 -115 -14
-47 -99 -288 -109 -310 -6 -11 -14 -36 -20 -55 -5 -19 -31 -93 -56 -165 -26
-71 -53 -148 -61 -170 -63 -189 -182 -530 -296 -850 -27 -77 -53 -153 -58
-170 -13 -43 -94 -277 -125 -360 -14 -38 -32 -90 -40 -115 -7 -25 -25 -76 -40
-115 -15 -38 -33 -92 -41 -119 -7 -26 -18 -53 -23 -60 -5 -6 -12 -27 -16 -46
-4 -19 -14 -48 -22 -64 -8 -15 -21 -49 -28 -75 -7 -25 -34 -104 -60 -176 -25
-71 -53 -152 -62 -180 -8 -27 -19 -54 -23 -60 -5 -5 -11 -27 -15 -48 -4 -21
-16 -42 -26 -47 -10 -6 -145 -10 -326 -10 -227 0 -312 -3 -321 -12 -9 -9 -12
-93 -12 -315 0 -289 1 -303 19 -313 12 -6 98 -10 211 -10 145 0 192 -3 196
-13 2 -7 -21 -84 -52 -172 -31 -88 -82 -236 -115 -330 -32 -93 -81 -235 -110
-315 -28 -80 -57 -163 -64 -185 -8 -22 -28 -78 -45 -125 -17 -47 -35 -98 -40
-115 -5 -16 -23 -68 -40 -115 -17 -47 -46 -130 -65 -185 -19 -55 -55 -158 -81
-230 -58 -166 -76 -217 -118 -340 -19 -55 -69 -199 -110 -320 l-76 -220 21
-17 c20 -17 153 -18 2380 -18 l2359 0 6 25 c7 28 6 30 -31 130 -14 39 -43 122
-65 185 -22 63 -68 198 -104 300 -35 102 -88 253 -116 335 -35 103 -59 157
-76 173 l-25 22 -690 0 -689 0 -8 23 c-4 12 -5 146 -2 297 l5 275 595 5 c327
3 596 6 598 8 5 5 2 49 -5 55 -6 7 -72 192 -100 282 -9 28 -19 55 -24 60 -4 6
-13 29 -18 50 -10 41 -39 124 -86 250 -14 39 -32 90 -40 115 -7 25 -25 77 -40
115 -14 39 -41 115 -60 170 -18 55 -64 186 -100 290 -37 105 -73 208 -80 230
-7 22 -41 119 -75 215 -59 168 -136 390 -165 475 -7 22 -34 99 -60 170 -26 72
-62 175 -81 230 -18 55 -47 138 -64 185 -64 178 -71 196 -84 240 -8 25 -35
104 -61 175 -26 72 -53 148 -60 170 -8 22 -37 105 -65 185 -28 80 -80 228
-115 330 -55 160 -98 284 -221 635 -14 39 -29 84 -34 100 -5 17 -23 68 -40
115 -17 47 -37 106 -44 132 -17 56 -22 65 -46 78 -17 9 -21 5 -34 -37z"/>
<path d="M21250 13191 c-12 -23 -13 -250 -2 -269 7 -10 195 -12 908 -10 l899
3 3 125 c1 69 0 135 -3 148 l-5 22 -895 0 c-874 0 -895 0 -905 -19z"/>
<path d="M8242 10832 c-9 -7 -12 -56 -10 -213 l3 -204 1115 0 1115 0 3 199 c2
138 -1 203 -9 212 -10 12 -188 14 -1108 14 -603 0 -1102 -4 -1109 -8z"/>
</g>
</svg>
